<?xml version="1.0" encoding="UTF-8" standalone="no"?>
<!DOCTYPE svg PUBLIC "-//W3C//DTD SVG 1.0//EN" "http://www.w3.org/TR/2001/REC-SVG-20010904/DTD/svg10.dtd">
<!-- Generated by Microsoft Visio 11.0, SVG Export, v1.0 opus_fw_boot_sequence.svg Page-1 -->
<svg xmlns="http://www.w3.org/2000/svg" xmlns:xlink="http://www.w3.org/1999/xlink" xmlns:ev="http://www.w3.org/2001/xml-events"
		xmlns:v="http://schemas.microsoft.com/visio/2003/SVGExtensions/" width="4.12801in" height="7.78253in"
		viewBox="0 0 297.217 560.343" xml:space="preserve" color-interpolation-filters="sRGB" class="st8">
	<v:documentProperties v:langID="1033" v:metric="true" v:viewMarkup="false"/>

	<style type="text/css">
	<![CDATA[
		.st1 {fill:#ffffff;stroke:#000000;stroke-linecap:round;stroke-linejoin:round;stroke-width:0.25}
		.st2 {fill:#ffffff;stroke:none;stroke-linecap:butt;stroke-width:7.2}
		.st3 {fill:#000000;font-family:Calibri;font-size:0.666664em}
		.st4 {font-size:1em}
		.st5 {marker-end:url(#mrkr5-13);stroke:#000000;stroke-linecap:round;stroke-linejoin:round;stroke-width:0.239976}
		.st6 {fill:#000000;fill-opacity:1;stroke:#000000;stroke-opacity:1;stroke-width:0.086948582161584}
		.st7 {fill:none;stroke:none;stroke-linecap:round;stroke-linejoin:round;stroke-width:0.72}
		.st8 {fill:none;fill-rule:evenodd;font-size:12px;overflow:visible;stroke-linecap:square;stroke-miterlimit:3}
	]]>
	</style>

	<defs id="Markers">
		<g id="lend5">
			<path d="M 2 1 L 0 0 L 1.98117 -0.993387 C 1.67173 -0.364515 1.67301 0.372641 1.98465 1.00043 " style="stroke:none"/>
		</g>
		<marker id="mrkr5-13" class="st6" v:arrowType="5" v:arrowSize="2" v:setback="20.1268" refX="-20.126837683768" orient="auto"
				markerUnits="strokeWidth" overflow="visible">
			<use xlink:href="#lend5" transform="scale(-11.501050105011,-11.501050105011) "/>
		</marker>
	</defs>
	<g v:mID="0" v:index="1" v:groupContext="foregroundPage">
		<title>Page-1</title>
		<v:pageProperties v:drawingScale="0.0393701" v:pageScale="0.0393701" v:drawingUnits="24" v:shadowOffsetX="8.50394"
				v:shadowOffsetY="-8.50394"/>
		<v:layer v:name="Connector" v:index="0"/>
		<g id="shape5-1" v:mID="5" v:groupContext="shape" transform="translate(0.25,-456.843)">
			<title>Sheet.5</title>
			<desc>RGU_RSTSR=0?</desc>
			<v:textBlock v:margins="rect(4,4,4,4)" v:tabSpace="42.5197"/>
			<v:textRect cx="38.5157" cy="521.339" width="77.04" height="78.0066"/>
			<path d="M38.03 482.34 L0 520.36 L38.03 560.34 L77.03 521.34 L38.03 482.34 Z" class="st1"/>
			<rect v:rectContext="textBkgnd" x="13.4201" y="516.539" width="50.1916" height="9.59985" class="st2"/>
			<text x="13.42" y="523.74" class="st3" v:langID="1031"><v:paragraph v:horizAlign="1"/><v:tabList/>RGU<tspan class="st4"
						v:langID="1033">_</tspan>RSTSR<tspan class="st4" v:langID="1033">=</tspan>0<tspan class="st4"
						v:langID="1033">?</tspan></text>		</g>
		<g id="shape6-8" v:mID="6" v:groupContext="shape" v:layerMember="0" transform="translate(45.6086,-547.471)">
			<title>Dynamic connector</title>
			<path d="M-6.84 561.89 L-7.12 568.14" class="st5"/>
		</g>
		<g id="shape7-14" v:mID="7" v:groupContext="shape" transform="translate(109.632,-233.4)">
			<title>Sheet.7</title>
			<desc>Check MSM Status MSMSR[4]=1?</desc>
			<v:textBlock v:margins="rect(4,4,4,4)" v:tabSpace="42.5197"/>
			<v:textRect cx="49.6063" cy="549.713" width="99.22" height="21.2598"/>
			<rect x="0" y="539.083" width="99.2126" height="21.2598" class="st1"/>
			<rect v:rectContext="textBkgnd" x="19.2862" y="540.113" width="60.6401" height="19.1997" class="st2"/>
			<text x="19.29" y="547.31" class="st3" v:langID="1031"><v:paragraph v:horizAlign="1"/><v:tabList/>Check MSM Status<v:newlineChar/><tspan
						x="26.57" dy="1.2em" class="st4">MSMSR</tspan>[4]=1?</text>		</g>
		<g id="shape8-19" v:mID="8" v:groupContext="shape" transform="translate(128.057,-154.953)">
			<title>Sheet.8</title>
			<desc>MSM Timeout occurred?</desc>
			<v:textBlock v:margins="rect(4,4,4,4)" v:tabSpace="42.5197"/>
			<v:textRect cx="31.5177" cy="528.426" width="63.04" height="63.8333"/>
			<path d="M31.12 496.51 L0 527.63 L31.12 560.34 L63.04 528.43 L31.12 496.51 Z" class="st1"/>
			<rect v:rectContext="textBkgnd" x="15.1897" y="514.026" width="32.656" height="28.7996" class="st2"/>
			<text x="22.84" y="521.23" class="st3" v:langID="1031"><v:paragraph v:horizAlign="1"/><v:tabList/>MSM<v:newlineChar/><tspan
						x="17.91" dy="1.2em" class="st4">Timeout </tspan><tspan x="15.19" dy="1.2em" class="st4">occurred</tspan>?</text>		</g>
		<g id="shape9-25" v:mID="9" v:groupContext="shape" transform="translate(119.553,-467.967)">
			<title>Sheet.9</title>
			<desc>Read OTP CCW</desc>
			<v:textBlock v:margins="rect(4,4,4,4)" v:tabSpace="42.5197"/>
			<v:textRect cx="39.685" cy="553.256" width="79.38" height="14.1732"/>
			<rect x="0" y="546.169" width="79.3701" height="14.1732" class="st1"/>
			<rect v:rectContext="textBkgnd" x="15.2086" y="548.456" width="48.9532" height="9.59985" class="st2"/>
			<text x="15.21" y="555.66" class="st3" v:langID="1031"><v:paragraph v:horizAlign="1"/><v:tabList/>Read OTP CCW</text>		</g>
		<g id="shape12-29" v:mID="12" v:groupContext="shape" transform="translate(219.014,-156.864)">
			<title>Sheet.12</title>
			<desc>Error code logging</desc>
			<v:textBlock v:margins="rect(4,4,4,4)" v:tabSpace="42.5197"/>
			<v:textRect cx="38.9764" cy="549.713" width="77.96" height="21.2598"/>
			<rect x="0" y="539.083" width="77.9528" height="21.2598" class="st1"/>
			<rect v:rectContext="textBkgnd" x="9.33398" y="544.913" width="59.2847" height="9.59985" class="st2"/>
			<text x="9.33" y="552.11" class="st3" v:langID="1031"><v:paragraph v:horizAlign="1"/><v:tabList/>Error code logging</text>		</g>
		<g id="shape13-33" v:mID="13" v:groupContext="shape" transform="translate(120.262,-71.1161)">
			<title>Sheet.13</title>
			<desc>OTP patching</desc>
			<v:textBlock v:margins="rect(4,4,4,4)" v:tabSpace="42.5197"/>
			<v:textRect cx="38.9764" cy="549.713" width="77.96" height="21.2598"/>
			<rect x="0" y="539.083" width="77.9528" height="21.2598" class="st1"/>
			<rect v:rectContext="textBkgnd" x="17.3557" y="544.913" width="43.2416" height="9.59985" class="st2"/>
			<text x="17.36" y="552.11" class="st3" v:langID="1031"><v:paragraph v:horizAlign="1"/><v:tabList/>OTP patching</text>		</g>
		<g id="shape14-37" v:mID="14" v:groupContext="shape" transform="translate(109.632,-268.833)">
			<title>Sheet.14</title>
			<desc>Configure CPUS Reset and clock domains</desc>
			<v:textBlock v:margins="rect(4,4,4,4)" v:tabSpace="42.5197"/>
			<v:textRect cx="49.6063" cy="549.713" width="99.22" height="21.2598"/>
			<rect x="0" y="539.083" width="99.2126" height="21.2598" class="st1"/>
			<rect v:rectContext="textBkgnd" x="9.58337" y="540.113" width="80.0458" height="19.1997" class="st2"/>
			<text x="24.25" y="547.31" class="st3" v:langID="1031"><v:paragraph v:horizAlign="1"/><v:tabList/>Configure CPUS<v:newlineChar/><tspan
						x="9.58" dy="1.2em" class="st4">Reset and clock domains</tspan></text>		</g>
		<g id="shape16-42" v:mID="16" v:groupContext="shape" transform="translate(125.683,-305.755)">
			<title>Sheet.16</title>
			<desc>CCW &#38; CPU Enabled?</desc>
			<v:textBlock v:margins="rect(4,4,4,4)" v:tabSpace="42.5197"/>
			<v:textRect cx="33.5551" cy="526.363" width="67.12" height="67.9597"/>
			<path d="M33.13 492.38 L0 525.51 L33.13 560.34 L67.11 526.36 L33.13 492.38 Z" class="st1"/>
			<rect v:rectContext="textBkgnd" x="18.6199" y="511.963" width="29.8707" height="28.7996" class="st2"/>
			<text x="22.1" y="519.16" class="st3" v:langID="1031"><v:paragraph v:horizAlign="1"/><v:tabList/>CCW &#38;<v:newlineChar/><tspan
						x="26.79" dy="1.2em" class="st4">CPU<v:newlineChar/></tspan><tspan x="18.62" dy="1.2em" class="st4">Enabled</tspan>?</text>		</g>
		<g id="shape17-48" v:mID="17" v:groupContext="shape" transform="translate(219.014,-295.762)">
			<title>Sheet.17</title>
			<desc>Enabled SWPWDN</desc>
			<v:textBlock v:margins="rect(4,4,4,4)" v:tabSpace="42.5197"/>
			<v:textRect cx="38.9764" cy="549.713" width="77.96" height="21.2598"/>
			<rect x="0" y="539.083" width="77.9528" height="21.2598" class="st1"/>
			<rect v:rectContext="textBkgnd" x="8.92584" y="544.913" width="60.1013" height="9.59985" class="st2"/>
			<text x="8.93" y="552.11" class="st3" v:langID="1031"><v:paragraph v:horizAlign="1"/><v:tabList/>Enabled SWPWDN</text>		</g>
		<g id="shape18-52" v:mID="18" v:groupContext="shape" transform="translate(219.014,-274.502)">
			<title>Sheet.18</title>
			<desc>Go in SWPWDN</desc>
			<v:textBlock v:margins="rect(4,4,4,4)" v:tabSpace="42.5197"/>
			<v:textRect cx="38.9764" cy="549.713" width="77.96" height="21.2598"/>
			<rect x="0" y="539.083" width="77.9528" height="21.2598" class="st1"/>
			<rect v:rectContext="textBkgnd" x="13.4511" y="544.913" width="51.0507" height="9.59985" class="st2"/>
			<text x="13.45" y="552.11" class="st3" v:langID="1031"><v:paragraph v:horizAlign="1"/><v:tabList/>Go in SWPWDN</text>		</g>
		<g id="shape19-56" v:mID="19" v:groupContext="shape" transform="translate(120.262,-106.549)">
			<title>Sheet.19</title>
			<desc>OS Start</desc>
			<v:textBlock v:margins="rect(4,4,4,4)" v:tabSpace="42.5197"/>
			<v:textRect cx="38.9764" cy="549.713" width="77.96" height="21.2598"/>
			<rect x="0" y="539.083" width="77.9528" height="21.2598" class="st1"/>
			<rect v:rectContext="textBkgnd" x="25.7577" y="544.913" width="26.4372" height="9.59985" class="st2"/>
			<text x="25.76" y="552.11" class="st3" v:langID="1031"><v:paragraph v:horizAlign="1"/><v:tabList/>OS Start</text>		</g>
		<g id="shape20-60" v:mID="20" v:groupContext="shape" transform="translate(120.262,-35.6831)">
			<title>Sheet.20</title>
			<desc>OS Init tasks</desc>
			<v:textBlock v:margins="rect(4,4,4,4)" v:tabSpace="42.5197"/>
			<v:textRect cx="38.9764" cy="549.713" width="77.96" height="21.2598"/>
			<rect x="0" y="539.083" width="77.9528" height="21.2598" class="st1"/>
			<rect v:rectContext="textBkgnd" x="19.1113" y="544.913" width="39.7301" height="9.59985" class="st2"/>
			<text x="19.11" y="552.11" class="st3" v:langID="1031"><v:paragraph v:horizAlign="1"/><v:tabList/>OS Init tasks</text>		</g>
		<g id="shape21-64" v:mID="21" v:groupContext="shape" v:layerMember="0" transform="translate(166.112,-470.447)">
			<title>Dynamic connector.21</title>
			<path d="M-6.87 562.82 L-7.08 567.21" class="st5"/>
		</g>
		<g id="shape23-69" v:mID="23" v:groupContext="shape" v:layerMember="0" transform="translate(192.793,-339.735)">
			<title>Dynamic connector.23</title>
			<path d="M0 560.34 L65.2 560.34 L65.2 578.23" class="st5"/>
		</g>
		<g id="shape24-74" v:mID="24" v:groupContext="shape" v:layerMember="0" transform="translate(151.953,-305.783)">
			<title>Dynamic connector.24</title>
			<path d="M6.89 560.34 L7.16 571.2" class="st5"/>
		</g>
		<g id="shape25-79" v:mID="25" v:groupContext="shape" v:layerMember="0" transform="translate(152.152,-268.833)">
			<title>Dynamic connector.25</title>
			<path d="M7.09 560.34 L7.09 569.69" class="st5"/>
		</g>
		<g id="shape26-84" v:mID="26" v:groupContext="shape" v:layerMember="0" transform="translate(166.294,-233.4)">
			<title>Dynamic connector.26</title>
			<path d="M-7.06 560.34 L-7.1 570.13" class="st5"/>
		</g>
		<g id="shape27-89" v:mID="27" v:groupContext="shape" v:layerMember="0" transform="translate(191.093,-189.584)">
			<title>Dynamic connector.27</title>
			<path d="M0 563.06 L66.9 563.06 L66.9 566.97" class="st5"/>
		</g>
		<g id="shape28-94" v:mID="28" v:groupContext="shape" v:layerMember="0" transform="translate(257.99,-156.864)">
			<title>Dynamic connector.28</title>
			<path d="M0 560.34 L0 575.22 L-98.75 575.22 L-98.75 584.57" class="st5"/>
		</g>
		<g id="shape32-99" v:mID="32" v:groupContext="shape" v:layerMember="0" transform="translate(152.152,-106.549)">
			<title>Dynamic connector.32</title>
			<path d="M7.09 560.34 L7.09 569.69" class="st5"/>
		</g>
		<g id="shape33-104" v:mID="33" v:groupContext="shape" v:layerMember="0" transform="translate(152.152,-71.1161)">
			<title>Dynamic connector.33</title>
			<path d="M7.09 560.34 L7.09 569.69" class="st5"/>
		</g>
		<g id="shape34-109" v:mID="34" v:groupContext="shape" v:layerMember="0" transform="translate(38.3035,-456.869)">
			<title>Dynamic connector.34</title>
			<path d="M0 560.34 L0 875.23 L120.93 875.23 L120.93 884.57" class="st5"/>
		</g>
		<g id="shape35-114" v:mID="35" v:groupContext="shape" transform="translate(13.2539,-545.919)">
			<title>Sheet.35</title>
			<desc>Reset</desc>
			<v:textBlock v:margins="rect(4,4,4,4)" v:tabSpace="42.5197"/>
			<v:textRect cx="25.5118" cy="553.256" width="51.03" height="14.1732"/>
			<rect x="0" y="546.169" width="51.0236" height="14.1732" rx="7.08661" ry="7.08661" class="st1"/>
			<rect v:rectContext="textBkgnd" x="16.4553" y="548.456" width="18.1129" height="9.59985" class="st2"/>
			<text x="16.46" y="555.66" class="st3" v:langID="1031"><v:paragraph v:horizAlign="1"/><v:tabList/>Reset</text>		</g>
		<g id="shape1-118" v:mID="1" v:groupContext="shape" transform="translate(24.5925,-450.25)">
			<title>Sheet.1</title>
			<desc>N</desc>
			<v:textBlock v:margins="rect(4,4,4,4)" v:tabSpace="42.5197"/>
			<v:textRect cx="7.08661" cy="556.799" width="14.18" height="7.08661"/>
			<rect x="0" y="553.256" width="14.1732" height="7.08661" class="st7"/>
			<text x="4.5" y="559.2" class="st3" v:langID="1031"><v:paragraph v:horizAlign="1"/><v:tabList/>N</text>		</g>
		<g id="shape2-121" v:mID="2" v:groupContext="shape" transform="translate(77.0335,-496.313)">
			<title>Sheet.2</title>
			<desc>Y</desc>
			<v:textBlock v:margins="rect(4,4,4,4)" v:tabSpace="42.5197"/>
			<v:textRect cx="7.08661" cy="556.799" width="14.18" height="7.08661"/>
			<rect x="0" y="553.256" width="14.1732" height="7.08661" class="st7"/>
			<text x="5.14" y="559.2" class="st3" v:langID="1031"><v:paragraph v:horizAlign="1"/><v:tabList/>Y</text>		</g>
		<g id="shape3-124" v:mID="3" v:groupContext="shape" transform="translate(193.502,-339.699)">
			<title>Sheet.3</title>
			<desc>N</desc>
			<v:textBlock v:margins="rect(4,4,4,4)" v:tabSpace="42.5197"/>
			<v:textRect cx="7.08661" cy="556.799" width="14.18" height="7.08661"/>
			<rect x="0" y="553.256" width="14.1732" height="7.08661" class="st7"/>
			<text x="4.5" y="559.2" class="st3" v:langID="1031"><v:paragraph v:horizAlign="1"/><v:tabList/>N</text>		</g>
		<g id="shape4-127" v:mID="4" v:groupContext="shape" transform="translate(145.313,-297.179)">
			<title>Sheet.4</title>
			<desc>Y</desc>
			<v:textBlock v:margins="rect(4,4,4,4)" v:tabSpace="42.5197"/>
			<v:textRect cx="7.08661" cy="556.799" width="14.18" height="7.08661"/>
			<rect x="0" y="553.256" width="14.1732" height="7.08661" class="st7"/>
			<text x="5.14" y="559.2" class="st3" v:langID="1031"><v:paragraph v:horizAlign="1"/><v:tabList/>Y</text>		</g>
		<g id="shape36-130" v:mID="36" v:groupContext="shape" transform="translate(190.667,-187.337)">
			<title>Sheet.36</title>
			<desc>Y</desc>
			<v:textBlock v:margins="rect(4,4,4,4)" v:tabSpace="42.5197"/>
			<v:textRect cx="7.08661" cy="556.799" width="14.18" height="7.08661"/>
			<rect x="0" y="553.256" width="14.1732" height="7.08661" class="st7"/>
			<text x="5.14" y="559.2" class="st3" v:langID="1031"><v:paragraph v:horizAlign="1"/><v:tabList/>Y</text>		</g>
		<g id="shape37-133" v:mID="37" v:groupContext="shape" transform="translate(145.313,-147.652)">
			<title>Sheet.37</title>
			<desc>N</desc>
			<v:textBlock v:margins="rect(4,4,4,4)" v:tabSpace="42.5197"/>
			<v:textRect cx="7.08661" cy="556.799" width="14.18" height="7.08661"/>
			<rect x="0" y="553.256" width="14.1732" height="7.08661" class="st7"/>
			<text x="4.5" y="559.2" class="st3" v:langID="1031"><v:paragraph v:horizAlign="1"/><v:tabList/>N</text>		</g>
		<g id="shape41-136" v:mID="41" v:groupContext="shape" transform="translate(120.262,-0.25)">
			<title>Sheet.41</title>
			<desc>OS I2C &#38; SVIP task execution</desc>
			<v:textBlock v:margins="rect(4,4,4,4)" v:tabSpace="42.5197"/>
			<v:textRect cx="38.9764" cy="549.713" width="77.96" height="21.2598"/>
			<rect x="0" y="539.083" width="77.9528" height="21.2598" class="st1"/>
			<rect v:rectContext="textBkgnd" x="9.15601" y="540.113" width="59.6407" height="19.1997" class="st2"/>
			<text x="9.16" y="547.31" class="st3" v:langID="1031"><v:paragraph v:horizAlign="1"/><v:tabList/>OS I2C &#38; SVIP task <tspan
						x="23" dy="1.2em" class="st4">execution</tspan></text>		</g>
		<g id="shape42-141" v:mID="42" v:groupContext="shape" v:layerMember="0" transform="translate(152.152,-35.6831)">
			<title>Dynamic connector.42</title>
			<path d="M7.09 560.34 L7.09 569.69" class="st5"/>
		</g>
		<g id="shape43-146" v:mID="43" v:groupContext="shape" transform="translate(125.683,-390.794)">
			<title>Sheet.43</title>
			<desc>CCW valid?</desc>
			<v:textBlock v:margins="rect(4,4,4,4)" v:tabSpace="42.5197"/>
			<v:textRect cx="33.5551" cy="526.363" width="67.12" height="67.9597"/>
			<path d="M33.13 492.38 L0 525.51 L33.13 560.34 L67.11 526.36 L33.13 492.38 Z" class="st1"/>
			<rect v:rectContext="textBkgnd" x="15.313" y="521.563" width="36.4845" height="9.59985" class="st2"/>
			<text x="15.31" y="528.76" class="st3" v:langID="1031"><v:paragraph v:horizAlign="1"/><v:tabList/>CCW valid?</text>		</g>
		<g id="shape46-150" v:mID="46" v:groupContext="shape" transform="translate(190.667,-426.156)">
			<title>Sheet.46</title>
			<desc>N</desc>
			<v:textBlock v:margins="rect(4,4,4,4)" v:tabSpace="42.5197"/>
			<v:textRect cx="7.08661" cy="556.799" width="14.18" height="7.08661"/>
			<rect x="0" y="553.256" width="14.1732" height="7.08661" class="st7"/>
			<text x="4.5" y="559.2" class="st3" v:langID="1031"><v:paragraph v:horizAlign="1"/><v:tabList/>N</text>		</g>
		<g id="shape47-153" v:mID="47" v:groupContext="shape" transform="translate(143.896,-383.636)">
			<title>Sheet.47</title>
			<desc>Y</desc>
			<v:textBlock v:margins="rect(4,4,4,4)" v:tabSpace="42.5197"/>
			<v:textRect cx="7.08661" cy="556.799" width="14.18" height="7.08661"/>
			<rect x="0" y="553.256" width="14.1732" height="7.08661" class="st7"/>
			<text x="5.14" y="559.2" class="st3" v:langID="1031"><v:paragraph v:horizAlign="1"/><v:tabList/>Y</text>		</g>
		<g id="shape48-156" v:mID="48" v:groupContext="shape" transform="translate(219.014,-366.628)">
			<title>Sheet.48</title>
			<desc>Minimized I2C</desc>
			<v:textBlock v:margins="rect(4,4,4,4)" v:tabSpace="42.5197"/>
			<v:textRect cx="38.9764" cy="549.713" width="77.96" height="21.2598"/>
			<rect x="0" y="539.083" width="77.9528" height="21.2598" class="st1"/>
			<rect v:rectContext="textBkgnd" x="15.7618" y="544.913" width="46.4293" height="9.59985" class="st2"/>
			<text x="15.76" y="552.11" class="st3" v:langID="1031"><v:paragraph v:horizAlign="1"/><v:tabList/>Minimized I2C</text>		</g>
		<g id="shape49-160" v:mID="49" v:groupContext="shape" transform="translate(219.014,-387.888)">
			<title>Sheet.49</title>
			<desc>Enable Debugger Pins</desc>
			<v:textBlock v:margins="rect(4,4,4,4)" v:tabSpace="42.5197"/>
			<v:textRect cx="38.9764" cy="549.713" width="77.96" height="21.2598"/>
			<rect x="0" y="539.083" width="77.9528" height="21.2598" class="st1"/>
			<rect v:rectContext="textBkgnd" x="11.2874" y="540.113" width="55.3782" height="19.1997" class="st2"/>
			<text x="11.29" y="547.31" class="st3" v:langID="1031"><v:paragraph v:horizAlign="1"/><v:tabList/>Enable Debugger <tspan
						x="32.33" dy="1.2em" class="st4">Pins</tspan></text>		</g>
		<g id="shape10-165" v:mID="10" v:groupContext="shape" v:layerMember="0" transform="translate(192.793,-424.774)">
			<title>Dynamic connector.10</title>
			<path d="M0 560.34 L65.2 560.34 L65.2 571.14" class="st5"/>
		</g>
		<g id="shape31-170" v:mID="31" v:groupContext="shape" v:layerMember="0" transform="translate(151.727,-390.794)">
			<title>Dynamic connector.31</title>
			<path d="M7.09 560.34 L7.09 572.59" class="st5"/>
		</g>
		<g id="shape22-175" v:mID="22" v:groupContext="shape" v:layerMember="0" transform="translate(77.2815,-496.08)">
			<title>Dynamic connector.22</title>
			<path d="M0 560.58 L81.96 560.58 L81.96 569.45" class="st5"/>
		</g>
		<g id="shape29-180" v:mID="29" v:groupContext="shape" v:layerMember="0" transform="translate(152.113,-154.97)">
			<title>Dynamic connector.29</title>
			<path d="M7.05 560.34 L7.11 582.67" class="st5"/>
		</g>
	</g>
</svg>
