<?xml version="1.0" encoding="UTF-8" standalone="no"?>
<!DOCTYPE svg PUBLIC "-//W3C//DTD SVG 1.0//EN" "http://www.w3.org/TR/2001/REC-SVG-20010904/DTD/svg10.dtd">
<!-- Generated by Microsoft Visio 11.0, SVG Export, v1.0 shasta_module_architecture.svg Page-1 -->
<svg xmlns="http://www.w3.org/2000/svg" xmlns:xlink="http://www.w3.org/1999/xlink" xmlns:ev="http://www.w3.org/2001/xml-events"
		xmlns:v="http://schemas.microsoft.com/visio/2003/SVGExtensions/" width="7.81388in" height="8.00726in"
		viewBox="0 0 562.599 576.523" xml:space="preserve" color-interpolation-filters="sRGB" class="st18">
	<v:documentProperties v:langID="1031" v:metric="true" v:viewMarkup="false">
		<v:userDefs>
			<v:ud v:nameU="msvNoAutoConnect" v:val="VT0(1):26"/>
		</v:userDefs>
	</v:documentProperties>

	<style type="text/css">
	<![CDATA[
		.st1 {visibility:visible}
		.st2 {fill:#1c4e5b;fill-opacity:0.5;stroke:#1c4e5b;stroke-linecap:round;stroke-linejoin:round;stroke-opacity:0.5;stroke-width:0.25}
		.st3 {fill:url(#grad28-6);stroke:#000000;stroke-linecap:round;stroke-linejoin:round;stroke-width:0.25}
		.st4 {fill:#000000;font-family:Calibri;font-size:0.833336em;font-weight:bold}
		.st5 {font-size:0.799995em;font-weight:normal}
		.st6 {fill:url(#grad28-14);stroke:#000000;stroke-linecap:round;stroke-linejoin:round;stroke-width:0.25}
		.st7 {fill:#000000;font-family:Calibri;font-size:0.75em;font-weight:bold}
		.st8 {font-size:1em}
		.st9 {fill:url(#grad28-152);stroke:#000000;stroke-linecap:round;stroke-linejoin:round;stroke-width:0.25}
		.st10 {fill:#000000;font-family:Calibri;font-size:0.833336em;font-style:italic;font-weight:bold}
		.st11 {fill:none;stroke:none;stroke-linecap:round;stroke-linejoin:round;stroke-width:0.25}
		.st12 {fill:#000000;font-family:Symbol;font-size:0.666664em}
		.st13 {font-family:Calibri;font-size:1em}
		.st14 {marker-end:url(#mrkr5-195);stroke:#000000;stroke-linecap:round;stroke-linejoin:round;stroke-width:0.25}
		.st15 {fill:#000000;fill-opacity:1;stroke:#000000;stroke-opacity:1;stroke-width:0.090252707581227}
		.st16 {marker-start:url(#mrkr5-208);stroke:#000000;stroke-linecap:round;stroke-linejoin:round;stroke-width:0.25}
		.st17 {fill:#000000;font-family:Calibri;font-size:0.666664em}
		.st18 {fill:none;fill-rule:evenodd;font-size:12px;overflow:visible;stroke-linecap:square;stroke-miterlimit:3}
	]]>
	</style>

	<defs id="Patterns_And_Gradients">
		<linearGradient id="grad28-6" v:fillPattern="28" v:foreground="#dedede" v:background="#d8d8d8" x1="0" y1="0" x2="0" y2="1">
			<stop offset="0" style="stop-color:#dedede;stop-opacity:1"/>
			<stop offset="1" style="stop-color:#d8d8d8;stop-opacity:1"/>
		</linearGradient>
		<linearGradient id="grad28-14" v:fillPattern="28" v:foreground="#91c6f7" v:background="#82b4e1" x1="0" y1="0" x2="0" y2="1">
			<stop offset="0" style="stop-color:#91c6f7;stop-opacity:1"/>
			<stop offset="1" style="stop-color:#82b4e1;stop-opacity:1"/>
		</linearGradient>
		<linearGradient id="grad28-152" v:fillPattern="28" v:foreground="#92d18f" v:background="#7cc97a" x1="0" y1="0" x2="0"
				y2="1">
			<stop offset="0" style="stop-color:#92d18f;stop-opacity:1"/>
			<stop offset="1" style="stop-color:#7cc97a;stop-opacity:1"/>
		</linearGradient>
	</defs>
	<defs id="Markers">
		<g id="lend5">
			<path d="M 2 1 L 0 0 L 1.98117 -0.993387 C 1.67173 -0.364515 1.67301 0.372641 1.98465 1.00043 " style="stroke:none"/>
		</g>
		<marker id="mrkr5-195" class="st15" v:arrowType="5" v:arrowSize="2" v:setback="19.39" refX="-19.39" orient="auto"
				markerUnits="strokeWidth" overflow="visible">
			<use xlink:href="#lend5" transform="scale(-11.08,-11.08) "/>
		</marker>
		<marker id="mrkr5-208" class="st15" v:arrowType="5" v:arrowSize="2" v:setback="17.95" refX="17.95" orient="auto"
				markerUnits="strokeWidth" overflow="visible">
			<use xlink:href="#lend5" transform="scale(11.08) "/>
		</marker>
	</defs>
	<g v:mID="0" v:index="1" v:groupContext="foregroundPage">
		<title>Page-1</title>
		<v:pageProperties v:drawingScale="0.0393701" v:pageScale="0.0393701" v:drawingUnits="24" v:shadowOffsetX="8.50394"
				v:shadowOffsetY="-8.50394"/>
		<g id="shape1-1" v:mID="1" v:groupContext="shape" transform="translate(18.25,-416.54)">
			<title>Rectangle.1</title>
			<desc>Application Modules Encapsulate the features</desc>
			<v:userDefs>
				<v:ud v:nameU="visVersion" v:val="VT0(14):26"/>
				<v:ud v:nameU="msvThemeColors" v:val="VT0(20):26"/>
				<v:ud v:nameU="msvThemeEffects" v:val="VT0(2):26"/>
			</v:userDefs>
			<v:textBlock v:margins="rect(4,4,4,4)" v:tabSpace="42.5197" v:verticalAlign="0"/>
			<v:textRect cx="262.205" cy="505.657" width="524.41" height="141.732"/>
			<g id="shadow1-2" v:groupContext="shadow" v:shadowOffsetX="1.44" v:shadowOffsetY="-1.44" v:shadowType="1"
					transform="matrix(1,0,0,1,1.44,1.44)" class="st1">
				<rect x="0" y="434.79" width="524.409" height="141.732" class="st2"/>
			</g>
			<rect x="0" y="434.79" width="524.409" height="141.732" class="st3"/>
			<text x="219.17" y="447.79" class="st4" v:langID="1031"><v:paragraph v:horizAlign="1"/><v:tabList/>Application Modules<v:newlineChar/><tspan
						x="221.85" dy="1.5em" class="st5">Encapsulate the features</tspan></text>		</g>
		<g id="shape2-9" v:mID="2" v:groupContext="shape" transform="translate(18.5,-232.288)">
			<title>Rectangle.29</title>
			<desc>Operation &#38; Maintenance Module</desc>
			<v:userDefs>
				<v:ud v:nameU="visVersion" v:val="VT0(14):26"/>
				<v:ud v:nameU="msvThemeColors" v:val="VT0(20):26"/>
				<v:ud v:nameU="msvThemeEffects" v:val="VT0(2):26"/>
			</v:userDefs>
			<v:textBlock v:margins="rect(4,4,4,4)" v:tabSpace="42.5197" v:verticalAlign="0"/>
			<v:textRect cx="162.992" cy="498.57" width="325.99" height="155.906"/>
			<g id="shadow2-10" v:groupContext="shadow" v:shadowOffsetX="1.44" v:shadowOffsetY="-1.44" v:shadowType="1"
					transform="matrix(1,0,0,1,1.44,1.44)" class="st1">
				<rect x="0" y="420.617" width="325.984" height="155.906" class="st2"/>
			</g>
			<rect x="0" y="420.617" width="325.984" height="155.906" class="st6"/>
			<text x="91.31" y="433.62" class="st4" v:langID="1031"><v:paragraph v:horizAlign="1"/><v:tabList/>Operation &#38; Maintenance Module</text>		</g>
		<g id="shape3-16" v:mID="3" v:groupContext="shape" transform="translate(18.5,-104.729)">
			<title>Rectangle.3</title>
			<desc>Drivers Encapsulate the access to the hardware</desc>
			<v:userDefs>
				<v:ud v:nameU="visVersion" v:val="VT0(14):26"/>
				<v:ud v:nameU="msvThemeColors" v:val="VT0(20):26"/>
				<v:ud v:nameU="msvThemeEffects" v:val="VT0(2):26"/>
			</v:userDefs>
			<v:textBlock v:margins="rect(4,4,4,4)" v:tabSpace="42.5197" v:verticalAlign="0"/>
			<v:textRect cx="262.205" cy="526.916" width="524.41" height="99.2126"/>
			<g id="shadow3-17" v:groupContext="shadow" v:shadowOffsetX="1.44" v:shadowOffsetY="-1.44" v:shadowType="1"
					transform="matrix(1,0,0,1,1.44,1.44)" class="st1">
				<rect x="0" y="477.31" width="524.409" height="99.2126" class="st2"/>
			</g>
			<rect x="0" y="477.31" width="524.409" height="99.2126" class="st3"/>
			<text x="247.39" y="490.31" class="st4" v:langID="1031"><v:paragraph v:horizAlign="1"/><v:tabList/>Drivers<v:newlineChar/><tspan
						x="197.69" dy="1.5em" class="st5">Encapsulate the access to the hardware</tspan></text>		</g>
		<g id="shape4-23" v:mID="4" v:groupContext="shape" transform="translate(32.6732,-118.903)">
			<title>Rectangle.4</title>
			<desc>System</desc>
			<v:userDefs>
				<v:ud v:nameU="visVersion" v:val="VT0(14):26"/>
				<v:ud v:nameU="msvThemeColors" v:val="VT0(20):26"/>
				<v:ud v:nameU="msvThemeEffects" v:val="VT0(2):26"/>
			</v:userDefs>
			<v:textBlock v:margins="rect(4,4,4,4)" v:tabSpace="42.5197"/>
			<v:textRect cx="21.2598" cy="555.263" width="42.52" height="42.5197"/>
			<g id="shadow4-24" v:groupContext="shadow" v:shadowOffsetX="1.44" v:shadowOffsetY="-1.44" v:shadowType="1"
					transform="matrix(1,0,0,1,1.44,1.44)" class="st1">
				<rect x="0" y="534.003" width="42.5197" height="42.5197" class="st2"/>
			</g>
			<rect x="0" y="534.003" width="42.5197" height="42.5197" class="st6"/>
			<text x="6.22" y="558.26" class="st4" v:langID="1031"><v:paragraph v:horizAlign="1"/><v:tabList/>System</text>		</g>
		<g id="shape5-29" v:mID="5" v:groupContext="shape" transform="translate(259.445,-118.903)">
			<title>Rectangle.5</title>
			<desc>OTP</desc>
			<v:userDefs>
				<v:ud v:nameU="visVersion" v:val="VT0(14):26"/>
				<v:ud v:nameU="msvThemeColors" v:val="VT0(20):26"/>
				<v:ud v:nameU="msvThemeEffects" v:val="VT0(2):26"/>
			</v:userDefs>
			<v:textBlock v:margins="rect(4,4,4,4)" v:tabSpace="42.5197"/>
			<v:textRect cx="21.2598" cy="555.263" width="42.52" height="42.5197"/>
			<g id="shadow5-30" v:groupContext="shadow" v:shadowOffsetX="1.44" v:shadowOffsetY="-1.44" v:shadowType="1"
					transform="matrix(1,0,0,1,1.44,1.44)" class="st1">
				<rect x="0" y="534.003" width="42.5197" height="42.5197" class="st2"/>
			</g>
			<rect x="0" y="534.003" width="42.5197" height="42.5197" class="st6"/>
			<text x="12.74" y="558.26" class="st4" v:langID="1031"><v:paragraph v:horizAlign="1"/><v:tabList/>OTP</text>		</g>
		<g id="shape6-35" v:mID="6" v:groupContext="shape" transform="translate(316.138,-118.903)">
			<title>Rectangle.12</title>
			<desc>DMA</desc>
			<v:userDefs>
				<v:ud v:nameU="visVersion" v:val="VT0(14):26"/>
				<v:ud v:nameU="msvThemeColors" v:val="VT0(20):26"/>
				<v:ud v:nameU="msvThemeEffects" v:val="VT0(2):26"/>
			</v:userDefs>
			<v:textBlock v:margins="rect(4,4,4,4)" v:tabSpace="42.5197"/>
			<v:textRect cx="21.2598" cy="555.263" width="42.52" height="42.5197"/>
			<g id="shadow6-36" v:groupContext="shadow" v:shadowOffsetX="1.44" v:shadowOffsetY="-1.44" v:shadowType="1"
					transform="matrix(1,0,0,1,1.44,1.44)" class="st1">
				<rect x="0" y="534.003" width="42.5197" height="42.5197" class="st2"/>
			</g>
			<rect x="0" y="534.003" width="42.5197" height="42.5197" class="st6"/>
			<text x="10.71" y="558.26" class="st4" v:langID="1031"><v:paragraph v:horizAlign="1"/><v:tabList/>DMA</text>		</g>
		<g id="shape7-41" v:mID="7" v:groupContext="shape" transform="translate(89.3661,-118.903)">
			<title>Rectangle.13</title>
			<desc>BIF</desc>
			<v:userDefs>
				<v:ud v:nameU="visVersion" v:val="VT0(14):26"/>
				<v:ud v:nameU="msvThemeColors" v:val="VT0(20):26"/>
				<v:ud v:nameU="msvThemeEffects" v:val="VT0(2):26"/>
			</v:userDefs>
			<v:textBlock v:margins="rect(4,4,4,4)" v:tabSpace="42.5197"/>
			<v:textRect cx="21.2598" cy="555.263" width="42.52" height="42.5197"/>
			<g id="shadow7-42" v:groupContext="shadow" v:shadowOffsetX="1.44" v:shadowOffsetY="-1.44" v:shadowType="1"
					transform="matrix(1,0,0,1,1.44,1.44)" class="st1">
				<rect x="0" y="534.003" width="42.5197" height="42.5197" class="st2"/>
			</g>
			<rect x="0" y="534.003" width="42.5197" height="42.5197" class="st6"/>
			<text x="14.83" y="558.26" class="st4" v:langID="1031"><v:paragraph v:horizAlign="1"/><v:tabList/>BIF</text>		</g>
		<g id="shape8-47" v:mID="8" v:groupContext="shape" transform="translate(32.4232,-244.772)">
			<title>Rectangle.14</title>
			<desc>CMSIS-RTOS (extended)</desc>
			<v:userDefs>
				<v:ud v:nameU="visVersion" v:val="VT0(14):26"/>
				<v:ud v:nameU="msvThemeColors" v:val="VT0(20):26"/>
				<v:ud v:nameU="msvThemeEffects" v:val="VT0(2):26"/>
			</v:userDefs>
			<v:textBlock v:margins="rect(4,4,4,4)" v:tabSpace="42.5197" v:verticalAlign="0"/>
			<v:textRect cx="92.126" cy="519.83" width="184.26" height="113.386"/>
			<g id="shadow8-48" v:groupContext="shadow" v:shadowOffsetX="1.44" v:shadowOffsetY="-1.44" v:shadowType="1"
					transform="matrix(1,0,0,1,1.44,1.44)" class="st1">
				<rect x="0" y="463.137" width="184.252" height="113.386" class="st2"/>
			</g>
			<rect x="0" y="463.137" width="184.252" height="113.386" class="st3"/>
			<text x="47.56" y="475.24" class="st7" v:langID="1031"><v:paragraph v:horizAlign="1"/><v:tabList/>CMSIS-RTOS (extended)</text>		</g>
		<g id="shape9-53" v:mID="9" v:groupContext="shape" transform="translate(131.886,-303.155)">
			<title>Rectangle.16</title>
			<desc>Exceptions</desc>
			<v:userDefs>
				<v:ud v:nameU="visVersion" v:val="VT0(14):26"/>
				<v:ud v:nameU="msvThemeColors" v:val="VT0(20):26"/>
				<v:ud v:nameU="msvThemeEffects" v:val="VT0(2):26"/>
			</v:userDefs>
			<v:textBlock v:margins="rect(4,4,4,4)" v:tabSpace="42.5197"/>
			<v:textRect cx="35.4331" cy="562.349" width="70.87" height="28.3465"/>
			<g id="shadow9-54" v:groupContext="shadow" v:shadowOffsetX="1.44" v:shadowOffsetY="-1.44" v:shadowType="1"
					transform="matrix(1,0,0,1,1.44,1.44)" class="st1">
				<rect x="0" y="548.176" width="70.8661" height="28.3465" class="st2"/>
			</g>
			<rect x="0" y="548.176" width="70.8661" height="28.3465" class="st6"/>
			<text x="13.08" y="565.35" class="st4" v:langID="1031"><v:paragraph v:horizAlign="1"/><v:tabList/>Exceptions</text>		</g>
		<g id="shape10-59" v:mID="10" v:groupContext="shape" transform="translate(131.636,-260.635)">
			<title>Rectangle.15</title>
			<desc>ITC Bus</desc>
			<v:userDefs>
				<v:ud v:nameU="visVersion" v:val="VT0(14):26"/>
				<v:ud v:nameU="msvThemeColors" v:val="VT0(20):26"/>
				<v:ud v:nameU="msvThemeEffects" v:val="VT0(2):26"/>
			</v:userDefs>
			<v:textBlock v:margins="rect(4,4,4,4)" v:tabSpace="42.5197"/>
			<v:textRect cx="35.4331" cy="562.349" width="70.87" height="28.3465"/>
			<g id="shadow10-60" v:groupContext="shadow" v:shadowOffsetX="1.44" v:shadowOffsetY="-1.44" v:shadowType="1"
					transform="matrix(1,0,0,1,1.44,1.44)" class="st1">
				<rect x="0" y="548.176" width="70.8661" height="28.3465" class="st2"/>
			</g>
			<rect x="0" y="548.176" width="70.8661" height="28.3465" class="st6"/>
			<text x="20.37" y="565.35" class="st4" v:langID="1031"><v:paragraph v:horizAlign="1"/><v:tabList/>ITC Bus</text>		</g>
		<g id="shape11-65" v:mID="11" v:groupContext="shape" transform="translate(46.8465,-260.635)">
			<title>Rectangle.17</title>
			<desc>RTX</desc>
			<v:userDefs>
				<v:ud v:nameU="visVersion" v:val="VT0(14):26"/>
				<v:ud v:nameU="msvThemeColors" v:val="VT0(20):26"/>
				<v:ud v:nameU="msvThemeEffects" v:val="VT0(2):26"/>
			</v:userDefs>
			<v:textBlock v:margins="rect(4,4,4,4)" v:tabSpace="42.5197"/>
			<v:textRect cx="35.4331" cy="541.09" width="70.87" height="70.8661"/>
			<g id="shadow11-66" v:groupContext="shadow" v:shadowOffsetX="1.44" v:shadowOffsetY="-1.44" v:shadowType="1"
					transform="matrix(1,0,0,1,1.44,1.44)" class="st1">
				<rect x="0" y="505.657" width="70.8661" height="70.8661" class="st2"/>
			</g>
			<rect x="0" y="505.657" width="70.8661" height="70.8661" class="st6"/>
			<text x="27.39" y="544.09" class="st4" v:langID="1031"><v:paragraph v:horizAlign="1"/><v:tabList/>RTX</text>		</g>
		<g id="group12-71" transform="translate(429.274,-430.714)" v:mID="12" v:groupContext="group">
			<v:userDefs>
				<v:ud v:nameU="msvThemeColors" v:val="VT0(20):26"/>
				<v:ud v:nameU="msvThemeEffects" v:val="VT0(2):26"/>
			</v:userDefs>
			<title>Sheet.12</title>
			<g id="shape13-72" v:mID="13" v:groupContext="shape" transform="translate(28.3465,-1.13687E-013)">
				<title>Circle.6</title>
				<v:userDefs>
					<v:ud v:nameU="visVersion" v:val="VT0(14):26"/>
					<v:ud v:nameU="msvThemeColors" v:val="VT0(20):26"/>
					<v:ud v:nameU="msvThemeEffects" v:val="VT0(2):26"/>
				</v:userDefs>
				<g id="shadow13-73" v:groupContext="shadow" v:shadowOffsetX="1.44" v:shadowOffsetY="-1.44" v:shadowType="1"
						transform="matrix(1,0,0,1,1.44,1.44)" class="st1">
					<path d="M0 541.09 A35.4331 35.4331 0 0 1 70.87 541.09 A35.4331 35.4331 0 1 1 -0 541.09 Z" class="st2"/>
				</g>
				<path d="M0 541.09 A35.4331 35.4331 0 0 1 70.87 541.09 A35.4331 35.4331 0 1 1 -0 541.09 Z" class="st6"/>
			</g>
			<g id="shape14-77" v:mID="14" v:groupContext="shape" transform="translate(14.1732,0)">
				<title>Circle.3</title>
				<v:userDefs>
					<v:ud v:nameU="visVersion" v:val="VT0(14):26"/>
					<v:ud v:nameU="msvThemeColors" v:val="VT0(20):26"/>
					<v:ud v:nameU="msvThemeEffects" v:val="VT0(2):26"/>
				</v:userDefs>
				<g id="shadow14-78" v:groupContext="shadow" v:shadowOffsetX="1.44" v:shadowOffsetY="-1.44" v:shadowType="1"
						transform="matrix(1,0,0,1,1.44,1.44)" class="st1">
					<path d="M0 541.09 A35.4331 35.4331 0 0 1 70.87 541.09 A35.4331 35.4331 0 0 1 0 541.09 Z" class="st2"/>
				</g>
				<path d="M0 541.09 A35.4331 35.4331 0 0 1 70.87 541.09 A35.4331 35.4331 0 0 1 0 541.09 Z" class="st6"/>
			</g>
			<g id="shape15-82" v:mID="15" v:groupContext="shape">
				<title>Circle.4</title>
				<desc>and many more..</desc>
				<v:userDefs>
					<v:ud v:nameU="visVersion" v:val="VT0(14):26"/>
					<v:ud v:nameU="msvThemeColors" v:val="VT0(20):26"/>
					<v:ud v:nameU="msvThemeEffects" v:val="VT0(2):26"/>
				</v:userDefs>
				<v:textBlock v:margins="rect(4,4,4,4)" v:tabSpace="42.5197"/>
				<v:textRect cx="35.4331" cy="541.09" width="62.01" height="53.1496"/>
				<g id="shadow15-83" v:groupContext="shadow" v:shadowOffsetX="1.44" v:shadowOffsetY="-1.44" v:shadowType="1"
						transform="matrix(1,0,0,1,1.44,1.44)" class="st1">
					<path d="M0 541.09 A35.4331 35.4331 0 1 1 70.87 541.09 A35.4331 35.4331 0 0 1 0 541.09 Z" class="st2"/>
				</g>
				<path d="M0 541.09 A35.4331 35.4331 0 1 1 70.87 541.09 A35.4331 35.4331 0 0 1 0 541.09 Z" class="st6"/>
				<text x="16.94" y="538.39" class="st7" v:langID="1031"><v:paragraph v:horizAlign="1"/><v:tabList/>and many <tspan
							x="23.08" dy="1.2em" class="st8">more</tspan>..</text>			</g>
		</g>
		<g id="shape16-89" v:mID="16" v:groupContext="shape" transform="translate(372.581,-459.06)">
			<title>Circle.136</title>
			<desc>Memory Manager</desc>
			<v:userDefs>
				<v:ud v:nameU="visVersion" v:val="VT0(14):26"/>
				<v:ud v:nameU="msvThemeColors" v:val="VT0(20):26"/>
				<v:ud v:nameU="msvThemeEffects" v:val="VT0(2):26"/>
			</v:userDefs>
			<v:textBlock v:margins="rect(4,4,4,4)" v:tabSpace="42.5197"/>
			<v:textRect cx="35.4331" cy="541.09" width="62.01" height="53.1496"/>
			<g id="shadow16-90" v:groupContext="shadow" v:shadowOffsetX="1.44" v:shadowOffsetY="-1.44" v:shadowType="1"
					transform="matrix(1,0,0,1,1.44,1.44)" class="st1">
				<path d="M0 541.09 A35.4331 35.4331 0 1 1 70.87 541.09 A35.4331 35.4331 0 0 1 0 541.09 Z" class="st2"/>
			</g>
			<path d="M0 541.09 A35.4331 35.4331 0 1 1 70.87 541.09 A35.4331 35.4331 0 0 1 0 541.09 Z" class="st6"/>
			<text x="19.42" y="538.39" class="st7" v:langID="1031"><v:paragraph v:horizAlign="1"/><v:tabList/>Memory <tspan
						x="18.64" dy="1.2em" class="st8">Manager</tspan></text>		</g>
		<g id="shape17-96" v:mID="17" v:groupContext="shape" transform="translate(315.888,-430.714)">
			<title>Circle.179</title>
			<desc>Logger</desc>
			<v:userDefs>
				<v:ud v:nameU="visVersion" v:val="VT0(14):26"/>
				<v:ud v:nameU="msvThemeColors" v:val="VT0(20):26"/>
				<v:ud v:nameU="msvThemeEffects" v:val="VT0(2):26"/>
			</v:userDefs>
			<v:textBlock v:margins="rect(4,4,4,4)" v:tabSpace="42.5197"/>
			<v:textRect cx="35.4331" cy="541.09" width="62.01" height="53.1496"/>
			<g id="shadow17-97" v:groupContext="shadow" v:shadowOffsetX="1.44" v:shadowOffsetY="-1.44" v:shadowType="1"
					transform="matrix(1,0,0,1,1.44,1.44)" class="st1">
				<path d="M0 541.09 A35.4331 35.4331 0 1 1 70.87 541.09 A35.4331 35.4331 0 0 1 0 541.09 Z" class="st2"/>
			</g>
			<path d="M0 541.09 A35.4331 35.4331 0 1 1 70.87 541.09 A35.4331 35.4331 0 0 1 0 541.09 Z" class="st6"/>
			<text x="22.98" y="543.79" class="st7" v:langID="1031"><v:paragraph v:horizAlign="1"/><v:tabList/>Logger</text>		</g>
		<g id="shape18-102" v:mID="18" v:groupContext="shape" transform="translate(259.195,-459.06)">
			<title>Circle.139</title>
			<desc>Patcher</desc>
			<v:userDefs>
				<v:ud v:nameU="visVersion" v:val="VT0(14):26"/>
				<v:ud v:nameU="msvThemeColors" v:val="VT0(20):26"/>
				<v:ud v:nameU="msvThemeEffects" v:val="VT0(2):26"/>
			</v:userDefs>
			<v:textBlock v:margins="rect(4,4,4,4)" v:tabSpace="42.5197"/>
			<v:textRect cx="35.4331" cy="541.09" width="62.01" height="53.1496"/>
			<g id="shadow18-103" v:groupContext="shadow" v:shadowOffsetX="1.44" v:shadowOffsetY="-1.44" v:shadowType="1"
					transform="matrix(1,0,0,1,1.44,1.44)" class="st1">
				<path d="M0 541.09 A35.4331 35.4331 0 1 1 70.87 541.09 A35.4331 35.4331 0 0 1 0 541.09 Z" class="st2"/>
			</g>
			<path d="M0 541.09 A35.4331 35.4331 0 1 1 70.87 541.09 A35.4331 35.4331 0 0 1 0 541.09 Z" class="st6"/>
			<text x="21.09" y="543.79" class="st7" v:langID="1031"><v:paragraph v:horizAlign="1"/><v:tabList/>Patcher</text>		</g>
		<g id="shape19-108" v:mID="19" v:groupContext="shape" transform="translate(202.502,-430.714)">
			<title>Circle.2</title>
			<desc>Telemetry</desc>
			<v:userDefs>
				<v:ud v:nameU="visVersion" v:val="VT0(14):26"/>
				<v:ud v:nameU="msvThemeColors" v:val="VT0(20):26"/>
				<v:ud v:nameU="msvThemeEffects" v:val="VT0(2):26"/>
			</v:userDefs>
			<v:textBlock v:margins="rect(4,4,4,4)" v:tabSpace="42.5197"/>
			<v:textRect cx="35.4331" cy="541.09" width="62.01" height="53.1496"/>
			<g id="shadow19-109" v:groupContext="shadow" v:shadowOffsetX="1.44" v:shadowOffsetY="-1.44" v:shadowType="1"
					transform="matrix(1,0,0,1,1.44,1.44)" class="st1">
				<path d="M0 541.09 A35.4331 35.4331 0 1 1 70.87 541.09 A35.4331 35.4331 0 0 1 0 541.09 Z" class="st2"/>
			</g>
			<path d="M0 541.09 A35.4331 35.4331 0 1 1 70.87 541.09 A35.4331 35.4331 0 0 1 0 541.09 Z" class="st6"/>
			<text x="16.35" y="543.79" class="st7" v:langID="1033"><v:paragraph v:horizAlign="1"/><v:tabList/>Telemetry</text>		</g>
		<g id="shape20-114" v:mID="20" v:groupContext="shape" transform="translate(145.809,-459.06)">
			<title>Circle</title>
			<desc>Fault Manager</desc>
			<v:userDefs>
				<v:ud v:nameU="visVersion" v:val="VT0(14):26"/>
				<v:ud v:nameU="msvThemeColors" v:val="VT0(20):26"/>
				<v:ud v:nameU="msvThemeEffects" v:val="VT0(2):26"/>
			</v:userDefs>
			<v:textBlock v:margins="rect(4,4,4,4)" v:tabSpace="42.5197"/>
			<v:textRect cx="35.4331" cy="541.09" width="62.01" height="53.1496"/>
			<g id="shadow20-115" v:groupContext="shadow" v:shadowOffsetX="1.44" v:shadowOffsetY="-1.44" v:shadowType="1"
					transform="matrix(1,0,0,1,1.44,1.44)" class="st1">
				<path d="M0 541.09 A35.4331 35.4331 0 0 1 70.87 541.09 A35.4331 35.4331 0 1 1 0 541.09 Z" class="st2"/>
			</g>
			<path d="M0 541.09 A35.4331 35.4331 0 0 1 70.87 541.09 A35.4331 35.4331 0 1 1 0 541.09 Z" class="st6"/>
			<text x="26.07" y="538.39" class="st7" v:langID="1033"><v:paragraph v:horizAlign="1"/><v:tabList/>Fault <tspan
						x="18.64" dy="1.2em" class="st8">Manager</tspan></text>		</g>
		<g id="shape21-121" v:mID="21" v:groupContext="shape" transform="translate(89.1161,-430.714)">
			<title>Circle.138</title>
			<desc>Voltage Control</desc>
			<v:userDefs>
				<v:ud v:nameU="visVersion" v:val="VT0(14):26"/>
				<v:ud v:nameU="msvThemeColors" v:val="VT0(20):26"/>
				<v:ud v:nameU="msvThemeEffects" v:val="VT0(2):26"/>
			</v:userDefs>
			<v:textBlock v:margins="rect(4,4,4,4)" v:tabSpace="42.5197"/>
			<v:textRect cx="35.4331" cy="541.09" width="62.01" height="53.1496"/>
			<g id="shadow21-122" v:groupContext="shadow" v:shadowOffsetX="1.44" v:shadowOffsetY="-1.44" v:shadowType="1"
					transform="matrix(1,0,0,1,1.44,1.44)" class="st1">
				<path d="M0 541.09 A35.4331 35.4331 0 1 1 70.87 541.09 A35.4331 35.4331 0 0 1 0 541.09 Z" class="st2"/>
			</g>
			<path d="M0 541.09 A35.4331 35.4331 0 1 1 70.87 541.09 A35.4331 35.4331 0 0 1 0 541.09 Z" class="st6"/>
			<text x="21.07" y="538.39" class="st7" v:langID="1033"><v:paragraph v:horizAlign="1"/><v:tabList/>Voltage <tspan
						x="21.53" dy="1.2em" class="st8">Control</tspan></text>		</g>
		<g id="shape22-128" v:mID="22" v:groupContext="shape" transform="translate(32.4232,-459.06)">
			<title>Circle.137</title>
			<desc>DC/DC Configurator</desc>
			<v:userDefs>
				<v:ud v:nameU="visVersion" v:val="VT0(14):26"/>
				<v:ud v:nameU="msvThemeColors" v:val="VT0(20):26"/>
				<v:ud v:nameU="msvThemeEffects" v:val="VT0(2):26"/>
			</v:userDefs>
			<v:textBlock v:margins="rect(4,4,4,4)" v:tabSpace="42.5197"/>
			<v:textRect cx="35.4331" cy="541.09" width="62.01" height="53.1496"/>
			<g id="shadow22-129" v:groupContext="shadow" v:shadowOffsetX="1.44" v:shadowOffsetY="-1.44" v:shadowType="1"
					transform="matrix(1,0,0,1,1.44,1.44)" class="st1">
				<path d="M0 541.09 A35.4331 35.4331 0 1 1 70.87 541.09 A35.4331 35.4331 0 0 1 0 541.09 Z" class="st2"/>
			</g>
			<path d="M0 541.09 A35.4331 35.4331 0 1 1 70.87 541.09 A35.4331 35.4331 0 0 1 0 541.09 Z" class="st6"/>
			<text x="23.06" y="538.39" class="st7" v:langID="1031"><v:paragraph v:horizAlign="1"/><v:tabList/>DC/DC <tspan
						x="11.74" dy="1.2em" class="st8">Configurator</tspan></text>		</g>
		<g id="shape23-135" v:mID="23" v:groupContext="shape" transform="translate(146.059,-118.903)">
			<title>Rectangle.8</title>
			<desc>PMBus</desc>
			<v:userDefs>
				<v:ud v:nameU="visVersion" v:val="VT0(14):26"/>
				<v:ud v:nameU="msvThemeColors" v:val="VT0(20):26"/>
				<v:ud v:nameU="msvThemeEffects" v:val="VT0(2):26"/>
			</v:userDefs>
			<v:textBlock v:margins="rect(4,4,4,4)" v:tabSpace="42.5197"/>
			<v:textRect cx="21.2598" cy="555.263" width="42.52" height="42.5197"/>
			<g id="shadow23-136" v:groupContext="shadow" v:shadowOffsetX="1.44" v:shadowOffsetY="-1.44" v:shadowType="1"
					transform="matrix(1,0,0,1,1.44,1.44)" class="st1">
				<rect x="0" y="534.003" width="42.5197" height="42.5197" class="st2"/>
			</g>
			<rect x="0" y="534.003" width="42.5197" height="42.5197" class="st6"/>
			<text x="6.75" y="558.26" class="st4" v:langID="1031"><v:paragraph v:horizAlign="1"/><v:tabList/>PMBus</text>		</g>
		<g id="shape24-141" v:mID="24" v:groupContext="shape" transform="translate(372.831,-118.903)">
			<title>Rectangle.30</title>
			<desc>WDT</desc>
			<v:userDefs>
				<v:ud v:nameU="visVersion" v:val="VT0(14):26"/>
				<v:ud v:nameU="msvThemeColors" v:val="VT0(20):26"/>
				<v:ud v:nameU="msvThemeEffects" v:val="VT0(2):26"/>
			</v:userDefs>
			<v:textBlock v:margins="rect(4,4,4,4)" v:tabSpace="42.5197"/>
			<v:textRect cx="21.2598" cy="555.263" width="42.52" height="42.5197"/>
			<g id="shadow24-142" v:groupContext="shadow" v:shadowOffsetX="1.44" v:shadowOffsetY="-1.44" v:shadowType="1"
					transform="matrix(1,0,0,1,1.44,1.44)" class="st1">
				<rect x="0" y="534.003" width="42.5197" height="42.5197" class="st2"/>
			</g>
			<rect x="0" y="534.003" width="42.5197" height="42.5197" class="st6"/>
			<text x="11.1" y="558.26" class="st4" v:langID="1031"><v:paragraph v:horizAlign="1"/><v:tabList/>WDT</text>		</g>
		<g id="shape25-147" v:mID="25" v:groupContext="shape" transform="translate(18.5,-19.69)">
			<title>Rectangle.25</title>
			<desc>Hardware</desc>
			<v:userDefs>
				<v:ud v:nameU="visVersion" v:val="VT0(14):26"/>
				<v:ud v:nameU="msvThemeColors" v:val="VT0(20):26"/>
				<v:ud v:nameU="msvThemeEffects" v:val="VT0(2):26"/>
			</v:userDefs>
			<v:textBlock v:margins="rect(4,4,4,4)" v:tabSpace="42.5197"/>
			<v:textRect cx="262.205" cy="548.176" width="524.41" height="56.6929"/>
			<g id="shadow25-148" v:groupContext="shadow" v:shadowOffsetX="1.44" v:shadowOffsetY="-1.44" v:shadowType="1"
					transform="matrix(1,0,0,1,1.44,1.44)" class="st1">
				<rect x="0" y="519.83" width="524.409" height="56.6929" class="st2"/>
			</g>
			<rect x="0" y="519.83" width="524.409" height="56.6929" class="st9"/>
			<text x="241.43" y="551.18" class="st10" v:langID="1031"><v:paragraph v:horizAlign="1"/><v:tabList/>Hardware</text>		</g>
		<g id="shape26-154" v:mID="26" v:groupContext="shape" transform="translate(202.752,-118.903)">
			<title>Rectangle.31</title>
			<desc>Fault</desc>
			<v:userDefs>
				<v:ud v:nameU="visVersion" v:val="VT0(14):26"/>
				<v:ud v:nameU="msvThemeColors" v:val="VT0(20):26"/>
				<v:ud v:nameU="msvThemeEffects" v:val="VT0(2):26"/>
			</v:userDefs>
			<v:textBlock v:margins="rect(4,4,4,4)" v:tabSpace="42.5197"/>
			<v:textRect cx="21.2598" cy="555.263" width="42.52" height="42.5197"/>
			<g id="shadow26-155" v:groupContext="shadow" v:shadowOffsetX="1.44" v:shadowOffsetY="-1.44" v:shadowType="1"
					transform="matrix(1,0,0,1,1.44,1.44)" class="st1">
				<rect x="0" y="534.003" width="42.5197" height="42.5197" class="st2"/>
			</g>
			<rect x="0" y="534.003" width="42.5197" height="42.5197" class="st6"/>
			<text x="10.85" y="558.26" class="st4" v:langID="1033"><v:paragraph v:horizAlign="1"/><v:tabList/>Fault</text>		</g>
		<g id="shape27-160" v:mID="27" v:groupContext="shape" transform="translate(429.524,-118.903)">
			<title>Rectangle.18</title>
			<desc>Timer</desc>
			<v:userDefs>
				<v:ud v:nameU="visVersion" v:val="VT0(14):26"/>
				<v:ud v:nameU="msvThemeColors" v:val="VT0(20):26"/>
				<v:ud v:nameU="msvThemeEffects" v:val="VT0(2):26"/>
			</v:userDefs>
			<v:textBlock v:margins="rect(4,4,4,4)" v:tabSpace="42.5197"/>
			<v:textRect cx="21.2598" cy="555.263" width="42.52" height="42.5197"/>
			<g id="shadow27-161" v:groupContext="shadow" v:shadowOffsetX="1.44" v:shadowOffsetY="-1.44" v:shadowType="1"
					transform="matrix(1,0,0,1,1.44,1.44)" class="st1">
				<rect x="0" y="534.003" width="42.5197" height="42.5197" class="st2"/>
			</g>
			<rect x="0" y="534.003" width="42.5197" height="42.5197" class="st6"/>
			<text x="9.19" y="558.26" class="st4" v:langID="1031"><v:paragraph v:horizAlign="1"/><v:tabList/>Timer</text>		</g>
		<g id="shape28-166" v:mID="28" v:groupContext="shape" transform="translate(486.217,-118.903)">
			<title>Rectangle.32</title>
			<desc>GPIO</desc>
			<v:userDefs>
				<v:ud v:nameU="visVersion" v:val="VT0(14):26"/>
				<v:ud v:nameU="msvThemeColors" v:val="VT0(20):26"/>
				<v:ud v:nameU="msvThemeEffects" v:val="VT0(2):26"/>
			</v:userDefs>
			<v:textBlock v:margins="rect(4,4,4,4)" v:tabSpace="42.5197"/>
			<v:textRect cx="21.2598" cy="555.263" width="42.52" height="42.5197"/>
			<g id="shadow28-167" v:groupContext="shadow" v:shadowOffsetX="1.44" v:shadowOffsetY="-1.44" v:shadowType="1"
					transform="matrix(1,0,0,1,1.44,1.44)" class="st1">
				<rect x="0" y="534.003" width="42.5197" height="42.5197" class="st2"/>
			</g>
			<rect x="0" y="534.003" width="42.5197" height="42.5197" class="st6"/>
			<text x="10.7" y="558.26" class="st4" v:langID="1031"><v:paragraph v:horizAlign="1"/><v:tabList/>GPIO</text>		</g>
		<g id="shape29-172" v:mID="29" v:groupContext="shape" transform="translate(228.264,-288.981)">
			<title>Sheet.29</title>
			<desc>RTOS and module init (boot sequence after core init) Owner of...</desc>
			<v:userDefs>
				<v:ud v:nameU="msvThemeColors" v:val="VT0(20):26"/>
				<v:ud v:nameU="msvThemeEffects" v:val="VT0(2):26"/>
			</v:userDefs>
			<v:textBlock v:margins="rect(2,2,2,2)" v:tabSpace="42.5197" v:verticalAlign="0"/>
			<v:textRect cx="51.0236" cy="541.09" width="102.05" height="70.8661"/>
			<rect x="0" y="505.657" width="102.047" height="70.8661" class="st11"/>
			<text x="2" y="514.95" class="st12" v:langID="1031"><v:paragraph v:indentFirst="-18" v:indentLeft="18" v:bullet="1"/><v:tabList/><tspan
						class="st8" v:isBullet="true">路</tspan> <tspan class="st13">RTOS and module init </tspan><tspan x="20"
						dy="1.204em" class="st13">(</tspan><tspan class="st13">boot sequence after </tspan><tspan x="20" dy="1.2em"
						class="st13">core init</tspan><tspan class="st13">)<v:newlineChar/></tspan><tspan x="2" dy="1.211em"
						class="st8" v:isBullet="true">路</tspan> <tspan class="st13">Owner of all RTOS </tspan><tspan x="20"
						dy="1.204em" class="st13">threads<v:newlineChar/></tspan><tspan x="2" dy="1.211em" class="st8"
						v:isBullet="true">路</tspan> <tspan class="st13">Periodic maintenance<v:newlineChar/></tspan><tspan x="2"
						dy="1.215em" class="st8" v:langID="1033" v:isBullet="true">路</tspan><tspan class="st8" v:langID="1033"> </tspan><tspan
						class="st13" v:langID="1033">Polling</tspan></text>		</g>
		<g id="shape30-189" v:mID="30" v:groupContext="shape" transform="translate(-388.444,372.581) rotate(-90)">
			<title>Sheet.30</title>
			<v:userDefs>
				<v:ud v:nameU="msvThemeColors" v:val="VT0(20):26"/>
				<v:ud v:nameU="msvThemeEffects" v:val="VT0(2):26"/>
			</v:userDefs>
			<path d="M0 576.52 L53.55 576.52" class="st14"/>
		</g>
		<g id="shape31-196" v:mID="31" v:groupContext="shape" transform="translate(-430.964,188.329) rotate(-90)">
			<title>Sheet.31</title>
			<v:userDefs>
				<v:ud v:nameU="msvThemeColors" v:val="VT0(20):26"/>
				<v:ud v:nameU="msvThemeEffects" v:val="VT0(2):26"/>
			</v:userDefs>
			<path d="M0 576.52 L23.51 576.52" class="st14"/>
		</g>
		<g id="shape32-202" v:mID="32" v:groupContext="shape" transform="translate(-147.499,372.581) rotate(-90)">
			<title>Sheet.32</title>
			<v:userDefs>
				<v:ud v:nameU="msvThemeColors" v:val="VT0(20):26"/>
				<v:ud v:nameU="msvThemeEffects" v:val="VT0(2):26"/>
			</v:userDefs>
			<path d="M4.49 576.52 L4.85 576.52 L212.6 576.52" class="st16"/>
		</g>
		<g id="shape33-209" v:mID="33" v:groupContext="shape" transform="translate(-430.964,372.581) rotate(-90)">
			<title>Sheet.33</title>
			<v:userDefs>
				<v:ud v:nameU="msvThemeColors" v:val="VT0(20):26"/>
				<v:ud v:nameU="msvThemeEffects" v:val="VT0(2):26"/>
			</v:userDefs>
			<path d="M4.49 576.52 L4.85 576.52 L28.36 576.52" class="st16"/>
		</g>
		<g id="shape34-215" v:mID="34" v:groupContext="shape" transform="translate(188.079,-218.126)">
			<title>Sheet.34</title>
			<desc>Message service</desc>
			<v:userDefs>
				<v:ud v:nameU="msvThemeColors" v:val="VT0(20):26"/>
				<v:ud v:nameU="msvThemeEffects" v:val="VT0(2):26"/>
			</v:userDefs>
			<v:textBlock v:margins="rect(2,2,2,2)" v:tabSpace="42.5197"/>
			<v:textRect cx="35.4331" cy="569.436" width="70.87" height="14.1732"/>
			<rect x="0" y="562.349" width="70.8661" height="14.1732" class="st11"/>
			<text x="2" y="571.84" class="st17" v:langID="1031"><v:paragraph/><v:tabList/>Message service</text>		</g>
		<g id="shape35-218" v:mID="35" v:groupContext="shape" transform="translate(117.213,-218.126)">
			<title>Sheet.35</title>
			<desc>API</desc>
			<v:userDefs>
				<v:ud v:nameU="msvThemeColors" v:val="VT0(20):26"/>
				<v:ud v:nameU="msvThemeEffects" v:val="VT0(2):26"/>
			</v:userDefs>
			<v:textBlock v:margins="rect(2,2,2,2)" v:tabSpace="42.5197"/>
			<v:textRect cx="14.1732" cy="569.436" width="28.35" height="14.1732"/>
			<rect x="0" y="562.349" width="28.3465" height="14.1732" class="st11"/>
			<text x="15.57" y="571.84" class="st17" v:langID="1031"><v:paragraph v:horizAlign="2"/><v:tabList/>API</text>		</g>
		<g id="shape36-221" v:mID="36" v:groupContext="shape" transform="translate(117.213,-402.378)">
			<title>Sheet.36</title>
			<desc>API</desc>
			<v:userDefs>
				<v:ud v:nameU="msvThemeColors" v:val="VT0(20):26"/>
				<v:ud v:nameU="msvThemeEffects" v:val="VT0(2):26"/>
			</v:userDefs>
			<v:textBlock v:margins="rect(2,2,2,2)" v:tabSpace="42.5197"/>
			<v:textRect cx="14.1732" cy="569.436" width="28.35" height="14.1732"/>
			<rect x="0" y="562.349" width="28.3465" height="14.1732" class="st11"/>
			<text x="15.57" y="571.84" class="st17" v:langID="1031"><v:paragraph v:horizAlign="2"/><v:tabList/>API</text>		</g>
		<g id="shape37-224" v:mID="37" v:groupContext="shape" transform="translate(400.677,-402.378)">
			<title>Sheet.37</title>
			<desc>API</desc>
			<v:userDefs>
				<v:ud v:nameU="msvThemeColors" v:val="VT0(20):26"/>
				<v:ud v:nameU="msvThemeEffects" v:val="VT0(2):26"/>
			</v:userDefs>
			<v:textBlock v:margins="rect(2,2,2,2)" v:tabSpace="42.5197"/>
			<v:textRect cx="14.1732" cy="569.436" width="28.35" height="14.1732"/>
			<rect x="0" y="562.349" width="28.3465" height="14.1732" class="st11"/>
			<text x="15.57" y="571.84" class="st17" v:langID="1031"><v:paragraph v:horizAlign="2"/><v:tabList/>API</text>		</g>
		<g id="shape38-227" v:mID="38" v:groupContext="shape" transform="translate(-260.385,500.14) rotate(-90)">
			<title>Sheet.38</title>
			<v:userDefs>
				<v:ud v:nameU="msvThemeColors" v:val="VT0(20):26"/>
				<v:ud v:nameU="msvThemeEffects" v:val="VT0(2):26"/>
			</v:userDefs>
			<path d="M4.49 576.52 L4.85 576.52 L28.35 576.52" class="st16"/>
		</g>
		<g id="shape39-233" v:mID="39" v:groupContext="shape" transform="translate(-331.751,500.14) rotate(-90)">
			<title>Sheet.39</title>
			<v:userDefs>
				<v:ud v:nameU="msvThemeColors" v:val="VT0(20):26"/>
				<v:ud v:nameU="msvThemeEffects" v:val="VT0(2):26"/>
			</v:userDefs>
			<path d="M0 576.52 L23.5 576.52" class="st14"/>
		</g>
		<g id="shape40-239" v:mID="40" v:groupContext="shape" transform="translate(216.425,-87.1761)">
			<title>Sheet.40</title>
			<desc>IRQs</desc>
			<v:userDefs>
				<v:ud v:nameU="msvThemeColors" v:val="VT0(20):26"/>
				<v:ud v:nameU="msvThemeEffects" v:val="VT0(2):26"/>
			</v:userDefs>
			<v:textBlock v:margins="rect(2,2,2,2)" v:tabSpace="42.5197"/>
			<v:textRect cx="14.1732" cy="569.436" width="28.35" height="14.1732"/>
			<rect x="0" y="562.349" width="28.3465" height="14.1732" class="st11"/>
			<text x="11.48" y="571.84" class="st17" v:langID="1031"><v:paragraph v:horizAlign="2"/><v:tabList/>IRQs</text>		</g>
		<g id="shape41-242" v:mID="41" v:groupContext="shape" transform="translate(315.638,-87.1761)">
			<title>Sheet.41</title>
			<desc>Register access</desc>
			<v:userDefs>
				<v:ud v:nameU="msvThemeColors" v:val="VT0(20):26"/>
				<v:ud v:nameU="msvThemeEffects" v:val="VT0(2):26"/>
			</v:userDefs>
			<v:textBlock v:margins="rect(2,2,2,2)" v:tabSpace="42.5197"/>
			<v:textRect cx="35.4331" cy="569.436" width="70.87" height="14.1732"/>
			<rect x="0" y="562.349" width="70.8661" height="14.1732" class="st11"/>
			<text x="2" y="571.84" class="st17" v:langID="1031"><v:paragraph/><v:tabList/>Register access</text>		</g>
	</g>
</svg>
