<?xml version="1.0" encoding="UTF-8" standalone="no"?>
<!DOCTYPE svg PUBLIC "-//W3C//DTD SVG 1.0//EN" "http://www.w3.org/TR/2001/REC-SVG-20010904/DTD/svg10.dtd">
<!-- Generated by Microsoft Visio 11.0, SVG Export, v1.0 configurator_icon.svg OPUS Prio Levels -->
<svg xmlns="http://www.w3.org/2000/svg" xmlns:xlink="http://www.w3.org/1999/xlink" xmlns:ev="http://www.w3.org/2001/xml-events"
		xmlns:v="http://schemas.microsoft.com/visio/2003/SVGExtensions/" width="8.79466in" height="3.17807in"
		viewBox="0 0 633.216 228.821" xml:space="preserve" color-interpolation-filters="sRGB" class="st22">
	<v:documentProperties v:langID="1031" v:metric="true" v:viewMarkup="false">
		<v:userDefs>
			<v:ud v:nameU="msvNoAutoConnect" v:val="VT0(1):26"/>
			<v:ud v:nameU="msvConvertTheme"/>
		</v:userDefs>
	</v:documentProperties>

	<style type="text/css">
	<![CDATA[
		.st1 {visibility:visible}
		.st2 {fill:#1c4e5b;fill-opacity:0.5;stroke:#1c4e5b;stroke-linecap:round;stroke-linejoin:round;stroke-opacity:0.5;stroke-width:0.25}
		.st3 {fill:url(#grad28-6);stroke:#000000;stroke-linecap:round;stroke-linejoin:round;stroke-width:0.25}
		.st4 {fill:#000000;font-family:Calibri;font-size:0.833336em;font-weight:bold}
		.st5 {fill:#1c4e5b;fill-opacity:0.5}
		.st6 {stroke:#1c4e5b;stroke-linecap:round;stroke-linejoin:round;stroke-opacity:0.5;stroke-width:0.72}
		.st7 {fill:#ff00ff;fill-opacity:0}
		.st8 {stroke:#000000;stroke-linecap:round;stroke-linejoin:round;stroke-opacity:0;stroke-width:0.72}
		.st9 {fill:url(#grad30-19);stroke:#ffffff;stroke-linecap:round;stroke-linejoin:round;stroke-width:0.72}
		.st10 {fill:url(#grad32-23)}
		.st11 {stroke:#000000;stroke-linecap:round;stroke-linejoin:round;stroke-width:0.72}
		.st12 {stroke:#000000;stroke-linecap:round;stroke-linejoin:round;stroke-width:1.5}
		.st13 {fill:#000000;font-family:Calibri;font-size:0.833336em}
		.st14 {font-size:1em}
		.st15 {fill:none;stroke:none;stroke-linecap:round;stroke-linejoin:round;stroke-width:0.72}
		.st16 {fill:#000000;font-family:Calibri;font-size:1.5em;font-weight:bold}
		.st17 {fill:#000000;font-family:Calibri;font-size:0.833336em;font-style:italic}
		.st18 {marker-end:url(#mrkr5-81);marker-start:url(#mrkr5-79);stroke:#000000;stroke-linecap:round;stroke-linejoin:round;stroke-width:1}
		.st19 {fill:#000000;fill-opacity:1;stroke:#000000;stroke-opacity:1;stroke-width:0.28409090909091}
		.st20 {fill:#000000;stroke:none;stroke-linecap:butt;stroke-width:0.75}
		.st21 {fill:#000000;font-family:Calibri;font-size:1.16666em}
		.st22 {fill:none;fill-rule:evenodd;font-size:12px;overflow:visible;stroke-linecap:square;stroke-miterlimit:3}
	]]>
	</style>

	<defs id="Patterns_And_Gradients">
		<linearGradient id="grad28-6" v:fillPattern="28" v:foreground="#91c6f7" v:background="#82b4e1" x1="0" y1="0" x2="0" y2="1">
			<stop offset="0" style="stop-color:#91c6f7;stop-opacity:1"/>
			<stop offset="1" style="stop-color:#82b4e1;stop-opacity:1"/>
		</linearGradient>
		<linearGradient id="grad30-19" v:fillPattern="30" v:foreground="#9ac2e7" v:background="#a6d1f9" x1="0" y1="1" x2="0" y2="0">
			<stop offset="0" style="stop-color:#9ac2e7;stop-opacity:1"/>
			<stop offset="1" style="stop-color:#a6d1f9;stop-opacity:1"/>
		</linearGradient>
		<pattern id="grad32-23" v:fillPattern="32" v:foreground="#91c6f7" v:background="#82b4e1" x="0" y="0" width="1" height="1"
				patternContentUnits="objectBoundingBox">
			<path d="M 0 1 L 0 0 L 1 0 z" style="fill:url(#grad27-24)"/>
			<path d="M 0 1 L 1 1 L 1 0 z" style="fill:url(#grad28-6)"/>
		</pattern>
		<linearGradient id="grad27-24" v:fillPattern="32" v:foreground="#91c6f7" v:background="#82b4e1" x1="1" y1="0" x2="0" y2="0">
			<stop offset="0" style="stop-color:#91c6f7;stop-opacity:1"/>
			<stop offset="1" style="stop-color:#82b4e1;stop-opacity:1"/>
		</linearGradient>
	</defs>
	<defs id="Markers">
		<g id="lend5">
			<path d="M 2 1 L 0 0 L 1.98117 -0.993387 C 1.67173 -0.364515 1.67301 0.372641 1.98465 1.00043 " style="stroke:none"/>
		</g>
		<marker id="mrkr5-79" class="st19" v:arrowType="5" v:arrowSize="2" v:setback="5.8" refX="5.8" orient="auto"
				markerUnits="strokeWidth" overflow="visible">
			<use xlink:href="#lend5" transform="scale(3.52) "/>
		</marker>
		<marker id="mrkr5-81" class="st19" v:arrowType="5" v:arrowSize="2" v:setback="6.16" refX="-6.16" orient="auto"
				markerUnits="strokeWidth" overflow="visible">
			<use xlink:href="#lend5" transform="scale(-3.52,-3.52) "/>
		</marker>
	</defs>
	<g v:mID="0" v:index="1" v:groupContext="foregroundPage">
		<v:userDefs>
			<v:ud v:nameU="msvThemeColors" v:val="VT0(20):26"/>
			<v:ud v:nameU="msvThemeEffects" v:val="VT0(2):26"/>
			<v:ud v:nameU="msvThemeOrder" v:val="VT0(0):26"/>
		</v:userDefs>
		<title>Page-1</title>
		<v:pageProperties v:drawingScale="0.0393701" v:pageScale="0.0393701" v:drawingUnits="24" v:shadowOffsetX="8.50394"
				v:shadowOffsetY="-8.50394"/>
		<v:layer v:name="Electrical" v:index="0"/>
		<v:layer v:name="Person" v:index="1"/>
		<v:layer v:name="Alarm and Access Control" v:index="2"/>
		<v:layer v:name="Security" v:index="3"/>
		<v:layer v:name="Electrical Fixture" v:index="4"/>
		<v:layer v:name="Plumbing" v:index="5"/>
		<v:layer v:name="Plumbing Fixture" v:index="6"/>
		<v:layer v:name="Piping" v:index="7"/>
		<v:layer v:name="Built in Accessory" v:index="8"/>
		<v:layer v:name="Valve" v:index="9"/>
		<v:layer v:name="Flow Controller" v:index="10"/>
		<v:layer v:name="HVAC" v:index="11"/>
		<v:layer v:name="Flow Fitting" v:index="12"/>
		<v:layer v:name="Connector" v:index="13"/>
		<g id="shape5-1" v:mID="5" v:groupContext="shape" transform="translate(47.4676,-39.6834) rotate(0.21814)">
			<title>Double flexi-arrow</title>
			<desc>PMBus</desc>
			<v:userDefs>
				<v:ud v:nameU="visVersion" v:val="VT0(14):26"/>
				<v:ud v:nameU="msvThemeColors" v:val="VT0(20):26"/>
				<v:ud v:nameU="msvThemeEffects" v:val="VT0(2):26"/>
			</v:userDefs>
			<v:textBlock v:margins="rect(4,4,4,4)" v:tabSpace="42.5197"/>
			<v:textRect cx="55.8971" cy="228.821" width="111.8" height="0"/>
			<g id="shadow5-2" v:groupContext="shadow" v:shadowOffsetX="1.44" v:shadowOffsetY="-1.44" v:shadowType="1"
					transform="matrix(1,-1.55007E-019,-1.22185E-019,1,1.44547,1.43451)" class="st1">
				<path d="M0 228.82 L16.94 211.75 L17.01 223.15 L94.79 223.15 L94.85 211.75 L111.79 228.82 L94.85 245.89 L94.79 234.49
							 L17.01 234.49 L16.94 245.89 L0 228.82 Z" class="st2"/>
			</g>
			<path d="M0 228.82 L16.94 211.75 L17.01 223.15 L94.79 223.15 L94.85 211.75 L111.79 228.82 L94.85 245.89 L94.79 234.49
						 L17.01 234.49 L16.94 245.89 L0 228.82 Z" class="st3"/>
			<text x="41.39" y="231.82" class="st4" v:langID="1031"><v:paragraph v:horizAlign="1"/><v:tabList/>PMBus</text>		</g>
		<g id="group88-8" transform="translate(320.761,-73.5256)" v:mID="88" v:groupContext="group">
			<v:userDefs>
				<v:ud v:nameU="msvThemeColors" v:val="VT0(20):26"/>
				<v:ud v:nameU="msvThemeEffects" v:val="VT0(2):26"/>
			</v:userDefs>
			<title>Sheet.88</title>
			<g id="group72-9" transform="translate(-0.79626,2.65945)" v:mID="72" v:groupContext="group">
				<v:custProps>
					<v:cp v:nameU="ShapeClass" v:lbl="ShapeClass" v:type="0" v:invis="true" v:ask="false" v:langID="1033"
							v:val="VT4(Connectivity)"/>
					<v:cp v:nameU="ShapeType" v:lbl="ShapeType" v:type="0" v:invis="true" v:ask="false" v:langID="1033"
							v:val="VT4(Conceptual)"/>
					<v:cp v:nameU="SubShapeType" v:lbl="SubShapeType" v:type="0" v:invis="true" v:ask="false" v:langID="1033"
							v:val="VT4(Data)"/>
				</v:custProps>
				<v:userDefs>
					<v:ud v:nameU="visLegendShape" v:val="VT0(2):26"/>
					<v:ud v:nameU="HasText" v:val="VT0(1):5"/>
					<v:ud v:nameU="SolSh" v:val="VT14({BF0433D9-CD73-4EB5-8390-8653BE590246}):41"/>
					<v:ud v:nameU="ShapeClass" v:val="VT0(4):26"/>
					<v:ud v:nameU="ShapeType" v:val="VT0(7):26"/>
					<v:ud v:nameU="SubShapeType" v:val="VT0(15):26"/>
					<v:ud v:nameU="visVersion" v:prompt="" v:val="VT0(14):26"/>
					<v:ud v:nameU="msvThemeColors" v:val="VT0(20):26"/>
					<v:ud v:nameU="msvThemeEffects" v:val="VT0(2):26"/>
				</v:userDefs>
				<title>Configuration management database</title>
				<desc>TRIM Config</desc>
				<g id="shape73-10" v:mID="73" v:groupContext="shape" transform="translate(0,0.000575512)">
					<title>Sheet.73</title>
					<v:userDefs>
						<v:ud v:nameU="msvThemeColors" v:val="VT0(20):26"/>
						<v:ud v:nameU="msvThemeEffects" v:val="VT0(2):26"/>
					</v:userDefs>
					<g id="shadow73-11" v:groupContext="shadow" v:shadowOffsetX="1.44" v:shadowOffsetY="-1.44" v:shadowType="1"
							transform="matrix(1,0,0,1,1.44,1.44)" class="st1">
						<path d="M131.75 135.11 A65.8754 38.2762 0.18 0 1 130.17 143.59 A65.8754 38.2762 -179.82 0 0 131.75 135.11
									 L131.75 135.11 ZM131.75 135.11 A65.8754 38.2762 -179.82 0 0 0 135.11 L0 190.54 A65.8757 38.2764
									 -179.82 0 0 131.75 190.54 L131.99 190.54 L131.99 135.11 L131.75 135.11 L131.75 135.11 Z"
								class="st5"/>
						<path d="M131.75 135.11 A65.8754 38.2762 0.18 0 1 130.17 143.59 A65.8754 38.2762 -179.82 0 0 131.75 135.11M131.75
									 135.11 A65.8754 38.2762 -179.82 0 0 0 135.11 L0 190.54 A65.8757 38.2764 -179.82 0 0 131.75 190.54
									 L131.99 190.54 L131.99 135.11 L131.75 135.11" class="st6"/>
					</g>
					<path d="M131.75 135.11 A65.8754 38.2762 0.18 0 1 130.17 143.59 A65.8754 38.2762 -179.82 0 0 131.75 135.11 L131.75
								 135.11 ZM131.75 135.11 A65.8754 38.2762 -179.82 0 0 0 135.11 L0 190.54 A65.8757 38.2764 -179.82
								 0 0 131.75 190.54 L131.99 190.54 L131.99 135.11 L131.75 135.11 L131.75 135.11 Z" class="st7"/>
					<path d="M131.75 135.11 A65.8754 38.2762 0.18 0 1 130.17 143.59 A65.8754 38.2762 -179.82 0 0 131.75 135.11M131.75
								 135.11 A65.8754 38.2762 -179.82 0 0 0 135.11 L0 190.54 A65.8757 38.2764 -179.82 0 0 131.75 190.54
								 L131.99 190.54 L131.99 135.11 L131.75 135.11" class="st8"/>
				</g>
				<g id="shape74-16" v:mID="74" v:groupContext="shape" transform="translate(-7.99361E-015,-55.4331)">
					<title>Sheet.74</title>
					<v:userDefs>
						<v:ud v:nameU="msvThemeColors" v:val="VT0(20):26"/>
						<v:ud v:nameU="msvThemeEffects" v:val="VT0(2):26"/>
					</v:userDefs>
					<path d="M0 190.34 A65.8754 38.2762 -179.82 1 1 131.75 190.75 A65.8754 38.2762 -179.82 1 1 0 190.34 Z"
							class="st9"/>
				</g>
				<g id="shape75-20" v:mID="75" v:groupContext="shape">
					<title>Sheet.75</title>
					<v:userDefs>
						<v:ud v:nameU="msvThemeColors" v:val="VT0(20):26"/>
						<v:ud v:nameU="msvThemeEffects" v:val="VT0(2):26"/>
					</v:userDefs>
					<path d="M0 135.11 L0 190.34 L0 190.54 A65.8757 38.2764 -179.82 0 0 131.75 190.54 L131.99 190.54 L131.99 135.11
								 L131.75 135.11 A65.8754 38.2762 0.18 0 1 0 135.11 L0 135.11 Z" class="st10"/>
					<path d="M0 135.11 L0 190.34 L0 190.54 A65.8757 38.2764 -179.82 0 0 131.75 190.54 L131.99 190.54 L131.99 135.11
								 L131.75 135.11 A65.8754 38.2762 0.18 0 1 0 135.11" class="st11"/>
				</g>
				<g id="shape76-26" v:mID="76" v:groupContext="shape" transform="translate(0,0.00107187)">
					<title>Sheet.76</title>
					<v:userDefs>
						<v:ud v:nameU="msvThemeColors" v:val="VT0(20):26"/>
						<v:ud v:nameU="msvThemeEffects" v:val="VT0(2):26"/>
					</v:userDefs>
					<path d="M131.75 135.11 A65.8754 38.2762 -179.82 1 0 0 135.11 L0 190.54 A65.8757 38.2764 -179.82 0 0 131.75 190.54
								 L131.99 190.54 L131.99 135.11 L131.75 135.11" class="st12"/>
				</g>
				<g id="shape72-29" v:mID="72" v:groupContext="groupContent">
					<v:textBlock v:margins="rect(4,4,4,4)" v:tabSpace="42.5197"/>
					<v:textRect cx="68.6328" cy="199.806" width="36.18" height="79.1477"/>
					<text x="57.95" y="196.81" class="st13" v:langID="1033"><v:paragraph v:horizAlign="1"/><v:tabList/>TRIM<v:newlineChar/><tspan
								x="55.68" dy="1.2em" class="st14">Config</tspan></text>				</g>
			</g>
			<g id="shape80-32" v:mID="80" v:groupContext="shape" transform="translate(24.3952,-48.2056)">
				<title>Configuration management database.80</title>
				<desc>Register</desc>
				<v:userDefs>
					<v:ud v:nameU="msvThemeColors" v:val="VT0(20):26"/>
					<v:ud v:nameU="msvThemeEffects" v:val="VT0(2):26"/>
				</v:userDefs>
				<v:textBlock v:margins="rect(4,4,4,4)" v:tabSpace="42.5197"/>
				<v:textRect cx="44.1848" cy="184.636" width="88.37" height="88.3696"/>
				<rect x="0" y="140.451" width="88.3696" height="88.3696" class="st15"/>
				<text x="13.67" y="190.04" class="st16" v:langID="1033"><v:paragraph v:horizAlign="1"/><v:tabList/>Register</text>			</g>
		</g>
		<g id="group89-35" transform="translate(165.476,-70.4405)" v:mID="89" v:groupContext="group">
			<v:userDefs>
				<v:ud v:nameU="msvThemeColors" v:val="VT0(20):26"/>
				<v:ud v:nameU="msvThemeEffects" v:val="VT0(2):26"/>
			</v:userDefs>
			<title>Sheet.89</title>
			<g id="group81-36" v:mID="81" v:groupContext="group">
				<v:custProps>
					<v:cp v:nameU="ShapeClass" v:lbl="ShapeClass" v:type="0" v:invis="true" v:ask="false" v:langID="1033"
							v:val="VT4(Connectivity)"/>
					<v:cp v:nameU="ShapeType" v:lbl="ShapeType" v:type="0" v:invis="true" v:ask="false" v:langID="1033"
							v:val="VT4(Conceptual)"/>
					<v:cp v:nameU="SubShapeType" v:lbl="SubShapeType" v:type="0" v:invis="true" v:ask="false" v:langID="1033"
							v:val="VT4(Data)"/>
				</v:custProps>
				<v:userDefs>
					<v:ud v:nameU="visLegendShape" v:val="VT0(2):26"/>
					<v:ud v:nameU="HasText" v:val="VT0(1):5"/>
					<v:ud v:nameU="SolSh" v:val="VT14({BF0433D9-CD73-4EB5-8390-8653BE590246}):41"/>
					<v:ud v:nameU="ShapeClass" v:val="VT0(4):26"/>
					<v:ud v:nameU="ShapeType" v:val="VT0(7):26"/>
					<v:ud v:nameU="SubShapeType" v:val="VT0(15):26"/>
					<v:ud v:nameU="visVersion" v:prompt="" v:val="VT0(14):26"/>
					<v:ud v:nameU="msvThemeColors" v:val="VT0(20):26"/>
					<v:ud v:nameU="msvThemeEffects" v:val="VT0(2):26"/>
				</v:userDefs>
				<title>Configuration management database.81</title>
				<desc>FW_Trim FW_Config PMBus</desc>
				<g id="shape82-37" v:mID="82" v:groupContext="shape" transform="translate(0,0.000575512)">
					<title>Sheet.82</title>
					<v:userDefs>
						<v:ud v:nameU="msvThemeColors" v:val="VT0(20):26"/>
						<v:ud v:nameU="msvThemeEffects" v:val="VT0(2):26"/>
					</v:userDefs>
					<g id="shadow82-38" v:groupContext="shadow" v:shadowOffsetX="1.44" v:shadowOffsetY="-1.44" v:shadowType="1"
							transform="matrix(1,0,0,1,1.44,1.44)" class="st1">
						<path d="M133.17 134.1 A66.5828 38.6872 0.18 0 1 131.56 142.67 A66.5828 38.6872 -179.82 0 0 133.16 134.1
									 L133.17 134.1 ZM133.16 134.1 A66.5828 38.6872 -179.82 0 0 0 134.1 L0 190.13 A66.5831 38.6874
									 -179.82 0 0 133.17 190.13 L133.4 190.13 L133.4 134.1 L133.17 134.1 L133.16 134.1 Z"
								class="st5"/>
						<path d="M133.17 134.1 A66.5828 38.6872 0.18 0 1 131.56 142.67 A66.5828 38.6872 -179.82 0 0 133.16 134.1M133.16
									 134.1 A66.5828 38.6872 -179.82 0 0 0 134.1 L0 190.13 A66.5831 38.6874 -179.82 0 0 133.17 190.13
									 L133.4 190.13 L133.4 134.1 L133.17 134.1" class="st6"/>
					</g>
					<path d="M133.17 134.1 A66.5828 38.6872 0.18 0 1 131.56 142.67 A66.5828 38.6872 -179.82 0 0 133.16 134.1 L133.17
								 134.1 ZM133.16 134.1 A66.5828 38.6872 -179.82 0 0 0 134.1 L0 190.13 A66.5831 38.6874 -179.82 0 0
								 133.17 190.13 L133.4 190.13 L133.4 134.1 L133.17 134.1 L133.16 134.1 Z" class="st7"/>
					<path d="M133.17 134.1 A66.5828 38.6872 0.18 0 1 131.56 142.67 A66.5828 38.6872 -179.82 0 0 133.16 134.1M133.16
								 134.1 A66.5828 38.6872 -179.82 0 0 0 134.1 L0 190.13 A66.5831 38.6874 -179.82 0 0 133.17 190.13
								 L133.4 190.13 L133.4 134.1 L133.17 134.1" class="st8"/>
				</g>
				<g id="shape83-43" v:mID="83" v:groupContext="shape" transform="translate(-7.99361E-015,-56.0284)">
					<title>Sheet.83</title>
					<v:userDefs>
						<v:ud v:nameU="msvThemeColors" v:val="VT0(20):26"/>
						<v:ud v:nameU="msvThemeEffects" v:val="VT0(2):26"/>
					</v:userDefs>
					<path d="M0 189.93 A66.5828 38.6872 -179.82 1 1 133.17 190.34 A66.5828 38.6872 -179.82 1 1 0 189.93 Z"
							class="st9"/>
				</g>
				<g id="shape84-46" v:mID="84" v:groupContext="shape">
					<title>Sheet.84</title>
					<v:userDefs>
						<v:ud v:nameU="msvThemeColors" v:val="VT0(20):26"/>
						<v:ud v:nameU="msvThemeEffects" v:val="VT0(2):26"/>
					</v:userDefs>
					<path d="M0 134.1 L0 189.93 L0 190.13 A66.5831 38.6874 -179.82 0 0 133.17 190.13 L133.4 190.13 L133.4 134.1 L133.17
								 134.1 A66.5828 38.6872 0.18 0 1 0 134.1 L0 134.1 Z" class="st10"/>
					<path d="M0 134.1 L0 189.93 L0 190.13 A66.5831 38.6874 -179.82 0 0 133.17 190.13 L133.4 190.13 L133.4 134.1 L133.17
								 134.1 A66.5828 38.6872 0.18 0 1 0 134.1" class="st11"/>
				</g>
				<g id="shape85-50" v:mID="85" v:groupContext="shape" transform="translate(0,0.00108338)">
					<title>Sheet.85</title>
					<v:userDefs>
						<v:ud v:nameU="msvThemeColors" v:val="VT0(20):26"/>
						<v:ud v:nameU="msvThemeEffects" v:val="VT0(2):26"/>
					</v:userDefs>
					<path d="M133.16 134.1 A66.5828 38.6872 -179.82 1 0 0 134.1 L0 190.13 A66.5831 38.6874 -179.82 0 0 133.17 190.13
								 L133.4 190.13 L133.4 134.1 L133.17 134.1" class="st12"/>
				</g>
				<g id="shape81-53" v:mID="81" v:groupContext="groupContent">
					<v:textBlock v:margins="rect(4,4,4,4)" v:tabSpace="42.5197"/>
					<v:textRect cx="69.3698" cy="199.147" width="54.73" height="65.7503"/>
					<text x="50.88" y="190.15" class="st17" v:langID="1033"><v:paragraph v:horizAlign="1"/><v:tabList/>FW_Trim<v:newlineChar/><tspan
								x="47.14" dy="1.2em" class="st14">FW</tspan>_Config<v:newlineChar/><tspan x="55.28" dy="1.2em"
								class="st14">PMBus</tspan></text>				</g>
			</g>
			<g id="shape87-57" v:mID="87" v:groupContext="shape" transform="translate(42.6949,-66.3311)">
				<title>Configuration management database.87</title>
				<desc>RAM</desc>
				<v:userDefs>
					<v:ud v:nameU="msvThemeColors" v:val="VT0(20):26"/>
					<v:ud v:nameU="msvThemeEffects" v:val="VT0(2):26"/>
				</v:userDefs>
				<v:textBlock v:margins="rect(4,4,4,4)" v:tabSpace="42.5197"/>
				<v:textRect cx="28.3465" cy="200.474" width="56.7" height="56.6929"/>
				<rect x="0" y="172.128" width="56.6929" height="56.6929" class="st15"/>
				<text x="9.96" y="205.87" class="st16" v:langID="1031"><v:paragraph v:horizAlign="1"/><v:tabList/>RAM</text>			</g>
		</g>
		<g id="shape98-60" v:mID="98" v:groupContext="shape" transform="translate(158.39,-22.2515)">
			<title>Rectangle.71</title>
			<v:userDefs>
				<v:ud v:nameU="visVersion" v:val="VT0(15):26"/>
				<v:ud v:nameU="msvThemeColors" v:val="VT0(20):26"/>
				<v:ud v:nameU="msvThemeEffects" v:val="VT0(2):26"/>
			</v:userDefs>
			<g id="shadow98-61" v:groupContext="shadow" v:shadowOffsetX="1.44" v:shadowOffsetY="-1.44" v:shadowType="1"
					transform="matrix(1,0,0,1,1.44,1.44)" class="st1">
				<rect x="0" y="200.474" width="455.136" height="28.3465" class="st2"/>
			</g>
			<rect x="0" y="200.474" width="455.136" height="28.3465" class="st3"/>
		</g>
		<g id="shape100-65" v:mID="100" v:groupContext="shape" transform="translate(18.25,-94.252)">
			<title>Rectangle.100</title>
			<desc>Other FW modules</desc>
			<v:userDefs>
				<v:ud v:nameU="visVersion" v:val="VT0(15):26"/>
				<v:ud v:nameU="msvThemeColors" v:val="VT0(20):26"/>
				<v:ud v:nameU="msvThemeEffects" v:val="VT0(2):26"/>
			</v:userDefs>
			<v:textBlock v:margins="rect(4,4,4,4)" v:tabSpace="42.5197"/>
			<v:textRect cx="58.8189" cy="199.411" width="117.64" height="58.8189"/>
			<g id="shadow100-66" v:groupContext="shadow" v:shadowOffsetX="1.44" v:shadowOffsetY="-1.44" v:shadowType="1"
					transform="matrix(1,0,0,1,1.44,1.44)" class="st1">
				<rect x="0" y="170.002" width="117.638" height="58.8189" class="st2"/>
			</g>
			<rect x="0" y="170.002" width="117.638" height="58.8189" class="st3"/>
			<text x="39.1" y="196.41" class="st13" v:langID="1031"><v:paragraph v:horizAlign="1"/><v:tabList/>Other FW<v:newlineChar/><tspan
						x="41.34" dy="1.2em" class="st14">modules</tspan></text>		</g>
		<g id="shape101-72" v:mID="101" v:groupContext="shape" v:layerMember="13" transform="translate(135.888,-116.645)">
			<title>Dynamic connector.101</title>
			<v:userDefs>
				<v:ud v:nameU="msvThemeColors" v:val="VT0(20):26"/>
				<v:ud v:nameU="msvThemeEffects" v:val="VT0(2):26"/>
			</v:userDefs>
			<path d="M5.8 221.8 L6.16 221.8 L10.63 221.8 L10.63 221.66 L23.43 221.66" class="st18"/>
		</g>
		<g id="shape102-82" v:mID="102" v:groupContext="shape" v:layerMember="13" transform="translate(239.352,-50.5975)">
			<title>Dynamic connector.102</title>
			<v:userDefs>
				<v:ud v:nameU="msvThemeColors" v:val="VT0(20):26"/>
				<v:ud v:nameU="msvThemeEffects" v:val="VT0(2):26"/>
			</v:userDefs>
			<path d="M-7.09 223.02 L-7.09 222.66 L-7.09 215.14" class="st18"/>
		</g>
		<g id="shape103-90" v:mID="103" v:groupContext="shape" transform="translate(165.476,-29.3382)">
			<title>Configure.86</title>
			<desc>Configurator</desc>
			<v:userDefs>
				<v:ud v:nameU="msvShapeCategories" v:prompt="" v:val="VT4(Icon)"/>
				<v:ud v:nameU="visVersion" v:prompt="" v:val="VT0(14):26"/>
				<v:ud v:nameU="msvThemeColors" v:val="VT0(20):26"/>
			</v:userDefs>
			<v:textBlock v:margins="rect(2,2,2,2)"/>
			<v:textRect cx="53.8443" cy="221.734" width="79.35" height="14.1732"/>
			<path d="M13 223.54 C12.73 223.43 11.85 223.05 11.85 223.05 L11.9 222.32 L11.95 221.71 L11.87 220.54 L12.45 220.2 C12.45
						 220.2 12.74 220.08 13.02 219.97 C12.82 219.49 12.74 219.29 12.54 218.81 C12.27 218.92 11.36 219.3 11.36
						 219.3 L10.91 218.74 C10.69 218.46 10.42 218.21 10.08 217.94 L9.55 217.53 L9.77 216.88 C9.77 216.88 9.89
						 216.57 10.01 216.28 C9.53 216.08 9.34 216 8.86 215.8 C8.73 216.11 8.35 217.04 8.35 217.04 L7.65 216.97 C7.29
						 216.93 6.92 216.94 6.54 216.99 L5.87 217.08 L5.56 216.46 C5.56 216.46 5.42 216.14 5.29 215.82 C4.81 216.02
						 4.61 216.1 4.14 216.3 C4.28 216.64 4.68 217.59 4.68 217.59 L4.13 218.04 C3.88 218.26 3.63 218.51 3.4 218.82
						 L2.99 219.35 L2.33 219.14 C2.33 219.14 1.98 219 1.63 218.86 C1.44 219.34 1.36 219.54 1.16 220.02 C1.52 220.16
						 2.47 220.54 2.47 220.54 C2.47 220.54 2.41 221.62 2.4 221.71 C2.41 221.78 2.42 222.03 2.42 222.03 C2.42 222.03
						 2.48 222.6 2.48 222.6 L2.14 222.91 C2.03 223.02 2 223.04 1.15 223.38 C1.33 223.86 1.41 224.06 1.6 224.54
						 C1.96 224.41 2.95 224.02 2.95 224.02 L3.46 224.72 C3.62 224.92 3.84 225.14 4.11 225.36 L4.61 225.79 L4.39
						 226.42 C4.39 226.42 4.23 226.77 4.08 227.12 C4.56 227.33 4.76 227.41 5.23 227.62 C5.37 227.29 5.78 226.34
						 5.78 226.34 L6.5 226.44 C6.84 226.49 7.21 226.5 7.59 226.46 L8.25 226.41 L8.54 227.01 C8.54 227.01 8.67
						 227.34 8.8 227.67 C9.28 227.48 9.48 227.4 9.96 227.2 C9.84 226.91 9.46 225.95 9.46 225.95 L10.18 225.43
						 C10.38 225.27 10.62 225.03 10.86 224.74 L11.28 224.23 L11.92 224.45 C11.92 224.45 12.23 224.57 12.51 224.7
						 C12.72 224.22 12.8 224.02 13 223.54 ZM12.78 222.44 C12.78 222.44 12.78 222.46 12.78 222.49 C12.9 222.54
						 14.16 223.07 14.16 223.07 L12.99 225.86 C12.99 225.86 11.7 225.31 11.57 225.26 C11.56 225.28 11.54 225.3
						 11.54 225.3 C11.26 225.64 10.99 225.92 10.7 226.15 C10.7 226.15 10.6 226.22 10.54 226.27 C10.59 226.39 11.11
						 227.7 11.11 227.7 L8.31 228.82 C8.31 228.82 7.76 227.46 7.72 227.34 C7.69 227.34 7.67 227.35 7.67 227.35
						 C7.22 227.39 6.78 227.38 6.38 227.32 C6.38 227.32 6.35 227.31 6.33 227.31 C6.28 227.43 5.69 228.78 5.69
						 228.78 L2.92 227.58 C2.92 227.58 3.52 226.19 3.57 226.07 C3.55 226.06 3.54 226.04 3.54 226.04 C3.22 225.77
						 2.96 225.51 2.75 225.24 C2.75 225.24 2.68 225.15 2.64 225.09 C2.51 225.14 1.1 225.69 1.1 225.69 L0 222.87
						 C0 222.87 1.51 222.28 1.51 222.28 C1.51 222.28 1.54 222.27 1.56 222.27 C1.55 222.19 1.54 222.09 1.54 222.09
						 L1.52 221.71 C1.52 221.71 1.54 221.24 1.55 221.13 C1.43 221.08 0.01 220.51 0.01 220.51 L1.14 217.71 C1.14
						 217.71 2.54 218.27 2.67 218.32 C2.68 218.3 2.7 218.28 2.7 218.28 C2.97 217.92 3.26 217.62 3.57 217.36 C3.57
						 217.36 3.59 217.35 3.61 217.33 C3.55 217.21 2.98 215.83 2.98 215.83 L5.76 214.66 C5.76 214.66 6.32 215.99
						 6.37 216.12 C6.4 216.11 6.42 216.11 6.42 216.11 C6.87 216.05 7.31 216.04 7.73 216.08 C7.73 216.08 7.76 216.09
						 7.78 216.09 C7.83 215.97 8.37 214.65 8.37 214.65 L11.17 215.8 C11.17 215.8 10.64 217.09 10.59 217.21 C10.61
						 217.23 10.63 217.24 10.63 217.24 C11.02 217.55 11.34 217.86 11.6 218.18 C11.6 218.18 11.61 218.2 11.63 218.23
						 C11.76 218.18 13.02 217.65 13.02 217.65 L14.17 220.45 C14.17 220.45 12.91 220.97 12.79 221.02 C12.79 221.05
						 12.79 221.07 12.79 221.07 C12.82 221.32 12.83 221.52 12.83 221.71 C12.83 221.93 12.82 222.16 12.78 222.44
						 ZM8.36 223.2 C9.18 222.55 9.32 221.35 8.66 220.53 C8.01 219.71 6.81 219.57 5.99 220.23 C5.17 220.89 5.03
						 222.08 5.69 222.91 C6.35 223.73 7.54 223.86 8.36 223.2 ZM7.48 218.94 C8.22 219.03 8.89 219.39 9.35 219.97
						 C10.31 221.18 10.12 222.94 8.92 223.9 C8.34 224.36 7.61 224.57 6.87 224.49 C6.13 224.41 5.46 224.04 5 223.46
						 C4.59 222.95 4.39 222.33 4.39 221.72 C4.39 220.9 4.75 220.09 5.43 219.54 C6.02 219.07 6.74 218.86 7.48 218.94
						 Z" class="st20"/>
			<text x="17.76" y="225.93" class="st21" v:langID="1033"><v:paragraph v:horizAlign="1"/><v:tabList/>Configurator</text>		</g>
		<g id="group104-93" transform="translate(471.793,-70.8661)" v:mID="104" v:groupContext="group">
			<v:userDefs>
				<v:ud v:nameU="msvThemeColors" v:val="VT0(20):26"/>
				<v:ud v:nameU="msvThemeEffects" v:val="VT0(2):26"/>
			</v:userDefs>
			<title>Sheet.104</title>
			<g id="group105-94" v:mID="105" v:groupContext="group">
				<v:custProps>
					<v:cp v:nameU="ShapeClass" v:lbl="ShapeClass" v:type="0" v:invis="true" v:ask="false" v:langID="1033"
							v:val="VT4(Connectivity)"/>
					<v:cp v:nameU="ShapeType" v:lbl="ShapeType" v:type="0" v:invis="true" v:ask="false" v:langID="1033"
							v:val="VT4(Conceptual)"/>
					<v:cp v:nameU="SubShapeType" v:lbl="SubShapeType" v:type="0" v:invis="true" v:ask="false" v:langID="1033"
							v:val="VT4(Data)"/>
				</v:custProps>
				<v:userDefs>
					<v:ud v:nameU="visLegendShape" v:val="VT0(2):26"/>
					<v:ud v:nameU="HasText" v:val="VT0(1):5"/>
					<v:ud v:nameU="SolSh" v:val="VT14({BF0433D9-CD73-4EB5-8390-8653BE590246}):41"/>
					<v:ud v:nameU="ShapeClass" v:val="VT0(4):26"/>
					<v:ud v:nameU="ShapeType" v:val="VT0(7):26"/>
					<v:ud v:nameU="SubShapeType" v:val="VT0(15):26"/>
					<v:ud v:nameU="visVersion" v:prompt="" v:val="VT0(14):26"/>
					<v:ud v:nameU="msvThemeColors" v:val="VT0(20):26"/>
					<v:ud v:nameU="msvThemeEffects" v:val="VT0(2):26"/>
				</v:userDefs>
				<title>Configuration management database</title>
				<desc>TRIM Config PMBus FW</desc>
				<g id="shape106-95" v:mID="106" v:groupContext="shape" transform="translate(0,0.000575512)">
					<title>Sheet.106</title>
					<v:userDefs>
						<v:ud v:nameU="msvThemeColors" v:val="VT0(20):26"/>
						<v:ud v:nameU="msvThemeEffects" v:val="VT0(2):26"/>
					</v:userDefs>
					<g id="shadow106-96" v:groupContext="shadow" v:shadowOffsetX="1.44" v:shadowOffsetY="-1.44" v:shadowType="1"
							transform="matrix(1,0,0,1,1.44,1.44)" class="st1">
						<path d="M129.77 136.52 A64.8851 37.7007 0.18 0 1 128.21 144.87 A64.8851 37.7007 -179.82 0 0 129.77 136.52
									 L129.77 136.52 ZM129.77 136.52 A64.8851 37.7007 -179.82 0 0 0 136.52 L0 191.12 A64.8854 37.7009
									 -179.82 0 0 129.77 191.12 L130 191.12 L130 136.52 L129.77 136.52 L129.77 136.52 Z" class="st5"/>
						<path d="M129.77 136.52 A64.8851 37.7007 0.18 0 1 128.21 144.87 A64.8851 37.7007 -179.82 0 0 129.77 136.52M129.77
									 136.52 A64.8851 37.7007 -179.82 0 0 0 136.52 L0 191.12 A64.8854 37.7009 -179.82 0 0 129.77 191.12
									 L130 191.12 L130 136.52 L129.77 136.52" class="st6"/>
					</g>
					<path d="M129.77 136.52 A64.8851 37.7007 0.18 0 1 128.21 144.87 A64.8851 37.7007 -179.82 0 0 129.77 136.52 L129.77
								 136.52 ZM129.77 136.52 A64.8851 37.7007 -179.82 0 0 0 136.52 L0 191.12 A64.8854 37.7009 -179.82
								 0 0 129.77 191.12 L130 191.12 L130 136.52 L129.77 136.52 L129.77 136.52 Z" class="st7"/>
					<path d="M129.77 136.52 A64.8851 37.7007 0.18 0 1 128.21 144.87 A64.8851 37.7007 -179.82 0 0 129.77 136.52M129.77
								 136.52 A64.8851 37.7007 -179.82 0 0 0 136.52 L0 191.12 A64.8854 37.7009 -179.82 0 0 129.77 191.12
								 L130 191.12 L130 136.52 L129.77 136.52" class="st8"/>
				</g>
				<g id="shape107-101" v:mID="107" v:groupContext="shape" transform="translate(-7.99361E-015,-54.5998)">
					<title>Sheet.107</title>
					<v:userDefs>
						<v:ud v:nameU="msvThemeColors" v:val="VT0(20):26"/>
						<v:ud v:nameU="msvThemeEffects" v:val="VT0(2):26"/>
					</v:userDefs>
					<path d="M0 190.92 A64.8851 37.7007 -179.82 1 1 129.77 191.32 A64.8851 37.7007 -179.82 1 1 0 190.92 Z"
							class="st9"/>
				</g>
				<g id="shape108-104" v:mID="108" v:groupContext="shape">
					<title>Sheet.108</title>
					<v:userDefs>
						<v:ud v:nameU="msvThemeColors" v:val="VT0(20):26"/>
						<v:ud v:nameU="msvThemeEffects" v:val="VT0(2):26"/>
					</v:userDefs>
					<path d="M0 136.52 L0 190.92 L0 191.12 A64.8854 37.7009 -179.82 0 0 129.77 191.12 L130 191.12 L130 136.52 L129.77
								 136.52 A64.8851 37.7007 0.18 0 1 0 136.52 L0 136.52 Z" class="st10"/>
					<path d="M0 136.52 L0 190.92 L0 191.12 A64.8854 37.7009 -179.82 0 0 129.77 191.12 L130 191.12 L130 136.52 L129.77
								 136.52 A64.8851 37.7007 0.18 0 1 0 136.52" class="st11"/>
				</g>
				<g id="shape109-108" v:mID="109" v:groupContext="shape" transform="translate(0,0.00105576)">
					<title>Sheet.109</title>
					<v:userDefs>
						<v:ud v:nameU="msvThemeColors" v:val="VT0(20):26"/>
						<v:ud v:nameU="msvThemeEffects" v:val="VT0(2):26"/>
					</v:userDefs>
					<path d="M129.77 136.52 A64.8851 37.7007 -179.82 1 0 0 136.52 L0 191.12 A64.8854 37.7009 -179.82 0 0 129.77 191.12
								 L130 191.12 L130 136.52 L129.77 136.52" class="st12"/>
				</g>
				<g id="shape105-111" v:mID="105" v:groupContext="groupContent">
					<v:textBlock v:margins="rect(4,4,4,4)" v:tabSpace="42.5197"/>
					<v:textRect cx="67.601" cy="200.242" width="38.59" height="77.9579"/>
					<text x="56.92" y="185.24" class="st13" v:langID="1033"><v:paragraph v:horizAlign="1"/><v:tabList/>TRIM<v:newlineChar/><tspan
								x="54.64" dy="1.2em" class="st14">Config<v:newlineChar/></tspan><tspan x="53.44" dy="1.2em"
								class="st14">PMBus<v:newlineChar/></tspan><tspan x="60.86" dy="1.2em" class="st14">FW</tspan></text>				</g>
			</g>
			<g id="shape110-116" v:mID="110" v:groupContext="shape" transform="translate(36.4006,-61.1009)">
				<title>Configuration management database.80</title>
				<desc>OTP</desc>
				<v:userDefs>
					<v:ud v:nameU="msvThemeColors" v:val="VT0(20):26"/>
					<v:ud v:nameU="msvThemeEffects" v:val="VT0(2):26"/>
				</v:userDefs>
				<v:textBlock v:margins="rect(4,4,4,4)" v:tabSpace="42.5197"/>
				<v:textRect cx="29.9005" cy="198.92" width="59.81" height="59.8009"/>
				<rect x="0" y="169.02" width="59.8009" height="59.8009" class="st15"/>
				<text x="14.57" y="204.32" class="st16" v:langID="1031"><v:paragraph v:horizAlign="1"/><v:tabList/>OTP</text>			</g>
		</g>
		<g id="shape99-119" v:mID="99" v:groupContext="shape" v:layerMember="13" transform="translate(378.871,-50.598)">
			<title>Dynamic connector.99</title>
			<v:userDefs>
				<v:ud v:nameU="msvThemeColors" v:val="VT0(20):26"/>
				<v:ud v:nameU="msvThemeEffects" v:val="VT0(2):26"/>
			</v:userDefs>
			<path d="M7.09 223.02 L7.09 222.66 L7.09 215.14" class="st18"/>
		</g>
		<g id="shape111-127" v:mID="111" v:groupContext="shape" v:layerMember="13" transform="translate(533.683,-50.598)">
			<title>Dynamic connector.111</title>
			<v:userDefs>
				<v:ud v:nameU="msvThemeColors" v:val="VT0(20):26"/>
				<v:ud v:nameU="msvThemeEffects" v:val="VT0(2):26"/>
			</v:userDefs>
			<path d="M7.09 223.02 L7.09 222.66 L7.09 215.14" class="st18"/>
		</g>
	</g>
</svg>
